<svg xmlns="http://www.w3.org/2000/svg" xmlns:xlink="http://www.w3.org/1999/xlink" width="1200" zoomAndPan="magnify" viewBox="0 0 900 299.999988" height="400" preserveAspectRatio="xMidYMid meet" version="1.0"><defs><filter x="0%" y="0%" width="100%" height="100%" id="a6e757cab6"><feColorMatrix values="0 0 0 0 1 0 0 0 0 1 0 0 0 0 1 0 0 0 1 0" color-interpolation-filters="sRGB"/></filter><clipPath id="2498c80fff"><path d="M 0 213.527344 L 900 213.527344 L 900 300 L 0 300 Z M 0 213.527344 " clip-rule="nonzero"/></clipPath><clipPath id="75afebb206"><path d="M 450 213.527344 C 193.554688 213.527344 -14.335938 255.976562 -14.335938 308.34375 C -14.335938 360.710938 193.554688 403.164062 450 403.164062 C 706.445312 403.164062 914.335938 360.710938 914.335938 308.34375 C 914.335938 255.976562 706.445312 213.527344 450 213.527344 Z M 450 213.527344 " clip-rule="nonzero"/></clipPath><clipPath id="57c47d4206"><path d="M 430.316406 177.085938 L 475.148438 177.085938 L 475.148438 189.773438 L 430.316406 189.773438 Z M 430.316406 177.085938 " clip-rule="nonzero"/></clipPath><clipPath id="b3d9f36749"><path d="M 417.777344 19.746094 L 487.6875 19.746094 L 487.6875 189.882812 L 417.777344 189.882812 Z M 417.777344 19.746094 " clip-rule="nonzero"/></clipPath><clipPath id="e6a3401f59"><path d="M 452.734375 19.746094 C 433.425781 19.746094 417.777344 57.808594 417.777344 104.757812 C 417.777344 151.710938 433.425781 189.773438 452.734375 189.773438 C 472.039062 189.773438 487.6875 151.710938 487.6875 104.757812 C 487.6875 57.808594 472.039062 19.746094 452.734375 19.746094 Z M 452.734375 19.746094 " clip-rule="nonzero"/></clipPath><clipPath id="6b3aef36d1"><path d="M 409.507812 139.832031 L 435.101562 139.832031 L 435.101562 213.617188 L 409.507812 213.617188 Z M 409.507812 139.832031 " clip-rule="nonzero"/></clipPath><clipPath id="c8eb990b8a"><path d="M 422.304688 139.832031 C 415.238281 139.832031 409.507812 156.328125 409.507812 176.679688 C 409.507812 197.027344 415.238281 213.527344 422.304688 213.527344 C 429.375 213.527344 435.101562 197.027344 435.101562 176.679688 C 435.101562 156.328125 429.375 139.832031 422.304688 139.832031 Z M 422.304688 139.832031 " clip-rule="nonzero"/></clipPath><clipPath id="409894bb79"><path d="M 469.210938 139.832031 L 494.804688 139.832031 L 494.804688 213.617188 L 469.210938 213.617188 Z M 469.210938 139.832031 " clip-rule="nonzero"/></clipPath><clipPath id="1502cd9a8c"><path d="M 482.007812 139.832031 C 474.941406 139.832031 469.210938 156.328125 469.210938 176.679688 C 469.210938 197.027344 474.941406 213.527344 482.007812 213.527344 C 489.074219 213.527344 494.804688 197.027344 494.804688 176.679688 C 494.804688 156.328125 489.074219 139.832031 482.007812 139.832031 Z M 482.007812 139.832031 " clip-rule="nonzero"/></clipPath><clipPath id="f6a5ed329d"><path d="M 438.246094 122.089844 L 467.21875 122.089844 L 467.21875 151.402344 L 438.246094 151.402344 Z M 438.246094 122.089844 " clip-rule="nonzero"/></clipPath><clipPath id="7841ed0d16"><path d="M 452.734375 122.089844 C 444.730469 122.089844 438.246094 128.65625 438.246094 136.757812 C 438.246094 144.863281 444.730469 151.429688 452.734375 151.429688 C 460.734375 151.429688 467.21875 144.863281 467.21875 136.757812 C 467.21875 128.65625 460.734375 122.089844 452.734375 122.089844 Z M 452.734375 122.089844 " clip-rule="nonzero"/></clipPath><linearGradient x1="128" gradientTransform="matrix(0.113173, 0, 0, 0.113173, 438.24664, 122.088885)" y1="0.00642657" x2="128" gradientUnits="userSpaceOnUse" y2="259.006367" id="0cae0b5398"><stop stop-opacity="1" stop-color="rgb(15.299988%, 23.899841%, 70.599365%)" offset="0"/><stop stop-opacity="1" stop-color="rgb(15.335083%, 24.003601%, 70.640564%)" offset="0.0078125"/><stop stop-opacity="1" stop-color="rgb(15.405273%, 24.212646%, 70.722961%)" offset="0.015625"/><stop stop-opacity="1" stop-color="rgb(15.475464%, 24.420166%, 70.806885%)" offset="0.0234375"/><stop stop-opacity="1" stop-color="rgb(15.545654%, 24.629211%, 70.889282%)" offset="0.03125"/><stop stop-opacity="1" stop-color="rgb(15.615845%, 24.836731%, 70.97168%)" offset="0.0390625"/><stop stop-opacity="1" stop-color="rgb(15.686035%, 25.045776%, 71.054077%)" offset="0.046875"/><stop stop-opacity="1" stop-color="rgb(15.756226%, 25.253296%, 71.136475%)" offset="0.0546875"/><stop stop-opacity="1" stop-color="rgb(15.826416%, 25.462341%, 71.220398%)" offset="0.0625"/><stop stop-opacity="1" stop-color="rgb(15.896606%, 25.671387%, 71.302795%)" offset="0.0703125"/><stop stop-opacity="1" stop-color="rgb(15.966797%, 25.878906%, 71.385193%)" offset="0.078125"/><stop stop-opacity="1" stop-color="rgb(16.036987%, 26.087952%, 71.46759%)" offset="0.0859375"/><stop stop-opacity="1" stop-color="rgb(16.107178%, 26.295471%, 71.551514%)" offset="0.09375"/><stop stop-opacity="1" stop-color="rgb(16.177368%, 26.504517%, 71.633911%)" offset="0.101562"/><stop stop-opacity="1" stop-color="rgb(16.247559%, 26.712036%, 71.716309%)" offset="0.109375"/><stop stop-opacity="1" stop-color="rgb(16.317749%, 26.921082%, 71.798706%)" offset="0.117188"/><stop stop-opacity="1" stop-color="rgb(16.387939%, 27.130127%, 71.881104%)" offset="0.125"/><stop stop-opacity="1" stop-color="rgb(16.45813%, 27.337646%, 71.965027%)" offset="0.132812"/><stop stop-opacity="1" stop-color="rgb(16.52832%, 27.546692%, 72.047424%)" offset="0.140625"/><stop stop-opacity="1" stop-color="rgb(16.598511%, 27.754211%, 72.129822%)" offset="0.148437"/><stop stop-opacity="1" stop-color="rgb(16.668701%, 27.963257%, 72.212219%)" offset="0.15625"/><stop stop-opacity="1" stop-color="rgb(16.738892%, 28.172302%, 72.294617%)" offset="0.164062"/><stop stop-opacity="1" stop-color="rgb(16.809082%, 28.379822%, 72.37854%)" offset="0.171875"/><stop stop-opacity="1" stop-color="rgb(16.879272%, 28.588867%, 72.460938%)" offset="0.179687"/><stop stop-opacity="1" stop-color="rgb(16.949463%, 28.796387%, 72.543335%)" offset="0.1875"/><stop stop-opacity="1" stop-color="rgb(17.021179%, 29.005432%, 72.625732%)" offset="0.195312"/><stop stop-opacity="1" stop-color="rgb(17.09137%, 29.212952%, 72.709656%)" offset="0.203125"/><stop stop-opacity="1" stop-color="rgb(17.16156%, 29.421997%, 72.792053%)" offset="0.210937"/><stop stop-opacity="1" stop-color="rgb(17.23175%, 29.631042%, 72.874451%)" offset="0.21875"/><stop stop-opacity="1" stop-color="rgb(17.301941%, 29.838562%, 72.956848%)" offset="0.226562"/><stop stop-opacity="1" stop-color="rgb(17.372131%, 30.047607%, 73.039246%)" offset="0.234375"/><stop stop-opacity="1" stop-color="rgb(17.442322%, 30.255127%, 73.123169%)" offset="0.242187"/><stop stop-opacity="1" stop-color="rgb(17.512512%, 30.464172%, 73.205566%)" offset="0.25"/><stop stop-opacity="1" stop-color="rgb(17.582703%, 30.671692%, 73.287964%)" offset="0.257812"/><stop stop-opacity="1" stop-color="rgb(17.652893%, 30.880737%, 73.370361%)" offset="0.265625"/><stop stop-opacity="1" stop-color="rgb(17.723083%, 31.089783%, 73.454285%)" offset="0.273437"/><stop stop-opacity="1" stop-color="rgb(17.793274%, 31.297302%, 73.536682%)" offset="0.28125"/><stop stop-opacity="1" stop-color="rgb(17.863464%, 31.506348%, 73.61908%)" offset="0.289062"/><stop stop-opacity="1" stop-color="rgb(17.933655%, 31.713867%, 73.701477%)" offset="0.296875"/><stop stop-opacity="1" stop-color="rgb(18.003845%, 31.922913%, 73.783875%)" offset="0.304687"/><stop stop-opacity="1" stop-color="rgb(18.074036%, 32.130432%, 73.867798%)" offset="0.3125"/><stop stop-opacity="1" stop-color="rgb(18.144226%, 32.339478%, 73.950195%)" offset="0.320312"/><stop stop-opacity="1" stop-color="rgb(18.214417%, 32.548523%, 74.032593%)" offset="0.328125"/><stop stop-opacity="1" stop-color="rgb(18.284607%, 32.756042%, 74.11499%)" offset="0.335937"/><stop stop-opacity="1" stop-color="rgb(18.354797%, 32.965088%, 74.198914%)" offset="0.34375"/><stop stop-opacity="1" stop-color="rgb(18.424988%, 33.172607%, 74.281311%)" offset="0.351562"/><stop stop-opacity="1" stop-color="rgb(18.495178%, 33.381653%, 74.363708%)" offset="0.359375"/><stop stop-opacity="1" stop-color="rgb(18.565369%, 33.589172%, 74.446106%)" offset="0.367187"/><stop stop-opacity="1" stop-color="rgb(18.635559%, 33.798218%, 74.528503%)" offset="0.375"/><stop stop-opacity="1" stop-color="rgb(18.70575%, 34.007263%, 74.612427%)" offset="0.382812"/><stop stop-opacity="1" stop-color="rgb(18.77594%, 34.214783%, 74.694824%)" offset="0.390625"/><stop stop-opacity="1" stop-color="rgb(18.84613%, 34.423828%, 74.777222%)" offset="0.398437"/><stop stop-opacity="1" stop-color="rgb(18.916321%, 34.631348%, 74.859619%)" offset="0.40625"/><stop stop-opacity="1" stop-color="rgb(18.988037%, 34.840393%, 74.943542%)" offset="0.414062"/><stop stop-opacity="1" stop-color="rgb(19.058228%, 35.047913%, 75.02594%)" offset="0.421875"/><stop stop-opacity="1" stop-color="rgb(19.128418%, 35.256958%, 75.108337%)" offset="0.429687"/><stop stop-opacity="1" stop-color="rgb(19.198608%, 35.466003%, 75.190735%)" offset="0.4375"/><stop stop-opacity="1" stop-color="rgb(19.268799%, 35.673523%, 75.273132%)" offset="0.445312"/><stop stop-opacity="1" stop-color="rgb(19.338989%, 35.882568%, 75.357056%)" offset="0.453125"/><stop stop-opacity="1" stop-color="rgb(19.40918%, 36.090088%, 75.439453%)" offset="0.460937"/><stop stop-opacity="1" stop-color="rgb(19.47937%, 36.299133%, 75.521851%)" offset="0.46875"/><stop stop-opacity="1" stop-color="rgb(19.549561%, 36.506653%, 75.604248%)" offset="0.476562"/><stop stop-opacity="1" stop-color="rgb(19.619751%, 36.715698%, 75.688171%)" offset="0.484375"/><stop stop-opacity="1" stop-color="rgb(19.689941%, 36.924744%, 75.770569%)" offset="0.492187"/><stop stop-opacity="1" stop-color="rgb(19.760132%, 37.132263%, 75.852966%)" offset="0.5"/><stop stop-opacity="1" stop-color="rgb(19.830322%, 37.341309%, 75.935364%)" offset="0.507812"/><stop stop-opacity="1" stop-color="rgb(19.900513%, 37.548828%, 76.017761%)" offset="0.515625"/><stop stop-opacity="1" stop-color="rgb(19.970703%, 37.757874%, 76.101685%)" offset="0.523438"/><stop stop-opacity="1" stop-color="rgb(20.040894%, 37.965393%, 76.184082%)" offset="0.53125"/><stop stop-opacity="1" stop-color="rgb(20.111084%, 38.174438%, 76.266479%)" offset="0.539062"/><stop stop-opacity="1" stop-color="rgb(20.181274%, 38.383484%, 76.348877%)" offset="0.546875"/><stop stop-opacity="1" stop-color="rgb(20.251465%, 38.591003%, 76.4328%)" offset="0.554687"/><stop stop-opacity="1" stop-color="rgb(20.321655%, 38.800049%, 76.515198%)" offset="0.5625"/><stop stop-opacity="1" stop-color="rgb(20.391846%, 39.007568%, 76.597595%)" offset="0.570313"/><stop stop-opacity="1" stop-color="rgb(20.462036%, 39.216614%, 76.679993%)" offset="0.578125"/><stop stop-opacity="1" stop-color="rgb(20.532227%, 39.424133%, 76.76239%)" offset="0.585938"/><stop stop-opacity="1" stop-color="rgb(20.602417%, 39.633179%, 76.846313%)" offset="0.59375"/><stop stop-opacity="1" stop-color="rgb(20.672607%, 39.842224%, 76.928711%)" offset="0.601562"/><stop stop-opacity="1" stop-color="rgb(20.742798%, 40.049744%, 77.011108%)" offset="0.609375"/><stop stop-opacity="1" stop-color="rgb(20.812988%, 40.258789%, 77.093506%)" offset="0.617188"/><stop stop-opacity="1" stop-color="rgb(20.884705%, 40.466309%, 77.175903%)" offset="0.625"/><stop stop-opacity="1" stop-color="rgb(20.954895%, 40.675354%, 77.259827%)" offset="0.632812"/><stop stop-opacity="1" stop-color="rgb(21.025085%, 40.884399%, 77.342224%)" offset="0.640625"/><stop stop-opacity="1" stop-color="rgb(21.095276%, 41.091919%, 77.424622%)" offset="0.648438"/><stop stop-opacity="1" stop-color="rgb(21.165466%, 41.300964%, 77.507019%)" offset="0.65625"/><stop stop-opacity="1" stop-color="rgb(21.235657%, 41.508484%, 77.590942%)" offset="0.664062"/><stop stop-opacity="1" stop-color="rgb(21.305847%, 41.717529%, 77.67334%)" offset="0.671875"/><stop stop-opacity="1" stop-color="rgb(21.376038%, 41.925049%, 77.755737%)" offset="0.679687"/><stop stop-opacity="1" stop-color="rgb(21.446228%, 42.134094%, 77.838135%)" offset="0.6875"/><stop stop-opacity="1" stop-color="rgb(21.516418%, 42.34314%, 77.920532%)" offset="0.695313"/><stop stop-opacity="1" stop-color="rgb(21.586609%, 42.550659%, 78.004456%)" offset="0.703125"/><stop stop-opacity="1" stop-color="rgb(21.656799%, 42.759705%, 78.086853%)" offset="0.710938"/><stop stop-opacity="1" stop-color="rgb(21.72699%, 42.967224%, 78.16925%)" offset="0.71875"/><stop stop-opacity="1" stop-color="rgb(21.79718%, 43.17627%, 78.251648%)" offset="0.726562"/><stop stop-opacity="1" stop-color="rgb(21.867371%, 43.383789%, 78.335571%)" offset="0.734375"/><stop stop-opacity="1" stop-color="rgb(21.937561%, 43.592834%, 78.417969%)" offset="0.742188"/><stop stop-opacity="1" stop-color="rgb(22.007751%, 43.80188%, 78.500366%)" offset="0.75"/><stop stop-opacity="1" stop-color="rgb(22.077942%, 44.009399%, 78.582764%)" offset="0.757812"/><stop stop-opacity="1" stop-color="rgb(22.148132%, 44.218445%, 78.665161%)" offset="0.765625"/><stop stop-opacity="1" stop-color="rgb(22.218323%, 44.425964%, 78.749084%)" offset="0.773438"/><stop stop-opacity="1" stop-color="rgb(22.288513%, 44.63501%, 78.831482%)" offset="0.78125"/><stop stop-opacity="1" stop-color="rgb(22.358704%, 44.842529%, 78.913879%)" offset="0.789062"/><stop stop-opacity="1" stop-color="rgb(22.428894%, 45.051575%, 78.996277%)" offset="0.796875"/><stop stop-opacity="1" stop-color="rgb(22.499084%, 45.26062%, 79.0802%)" offset="0.804687"/><stop stop-opacity="1" stop-color="rgb(22.569275%, 45.46814%, 79.162598%)" offset="0.8125"/><stop stop-opacity="1" stop-color="rgb(22.639465%, 45.677185%, 79.244995%)" offset="0.820313"/><stop stop-opacity="1" stop-color="rgb(22.709656%, 45.884705%, 79.327393%)" offset="0.828125"/><stop stop-opacity="1" stop-color="rgb(22.779846%, 46.09375%, 79.40979%)" offset="0.835938"/><stop stop-opacity="1" stop-color="rgb(22.851562%, 46.30127%, 79.493713%)" offset="0.84375"/><stop stop-opacity="1" stop-color="rgb(22.921753%, 46.510315%, 79.576111%)" offset="0.851562"/><stop stop-opacity="1" stop-color="rgb(22.991943%, 46.71936%, 79.658508%)" offset="0.859375"/><stop stop-opacity="1" stop-color="rgb(23.062134%, 46.92688%, 79.740906%)" offset="0.867188"/><stop stop-opacity="1" stop-color="rgb(23.132324%, 47.135925%, 79.824829%)" offset="0.875"/><stop stop-opacity="1" stop-color="rgb(23.202515%, 47.343445%, 79.907227%)" offset="0.882812"/><stop stop-opacity="1" stop-color="rgb(23.272705%, 47.55249%, 79.989624%)" offset="0.890625"/><stop stop-opacity="1" stop-color="rgb(23.342896%, 47.76001%, 80.072021%)" offset="0.898438"/><stop stop-opacity="1" stop-color="rgb(23.413086%, 47.969055%, 80.154419%)" offset="0.90625"/><stop stop-opacity="1" stop-color="rgb(23.483276%, 48.178101%, 80.238342%)" offset="0.914062"/><stop stop-opacity="1" stop-color="rgb(23.553467%, 48.38562%, 80.32074%)" offset="0.921875"/><stop stop-opacity="1" stop-color="rgb(23.623657%, 48.594666%, 80.403137%)" offset="0.929687"/><stop stop-opacity="1" stop-color="rgb(23.693848%, 48.802185%, 80.485535%)" offset="0.9375"/><stop stop-opacity="1" stop-color="rgb(23.764038%, 49.01123%, 80.569458%)" offset="0.945313"/><stop stop-opacity="1" stop-color="rgb(23.834229%, 49.21875%, 80.651855%)" offset="0.953125"/><stop stop-opacity="1" stop-color="rgb(23.904419%, 49.427795%, 80.734253%)" offset="0.960938"/><stop stop-opacity="1" stop-color="rgb(23.974609%, 49.636841%, 80.81665%)" offset="0.96875"/><stop stop-opacity="1" stop-color="rgb(24.0448%, 49.84436%, 80.899048%)" offset="0.976562"/><stop stop-opacity="1" stop-color="rgb(24.11499%, 50.053406%, 80.982971%)" offset="0.984375"/><stop stop-opacity="1" stop-color="rgb(24.185181%, 50.260925%, 81.065369%)" offset="0.992188"/><stop stop-opacity="1" stop-color="rgb(24.255371%, 50.469971%, 81.147766%)" offset="1"/></linearGradient><mask id="14928d38d9"><g filter="url(#a6e757cab6)"><rect x="-90" width="1080" fill="#000000" y="-29.999999" height="359.999986" fill-opacity="0.58"/></g></mask><clipPath id="3220372822"><path d="M 0.902344 0.445312 L 217.207031 0.445312 L 217.207031 133.445312 L 0.902344 133.445312 Z M 0.902344 0.445312 " clip-rule="nonzero"/></clipPath><clipPath id="90b247e76a"><rect x="0" width="218" y="0" height="134"/></clipPath><mask id="e4c02bf439"><g filter="url(#a6e757cab6)"><rect x="-90" width="1080" fill="#000000" y="-29.999999" height="359.999986" fill-opacity="0.58"/></g></mask><clipPath id="8bbba8e7e4"><path d="M 1.1875 0.84375 L 217.496094 0.84375 L 217.496094 133.847656 L 1.1875 133.847656 Z M 1.1875 0.84375 " clip-rule="nonzero"/></clipPath><clipPath id="f1cd4c85ab"><rect x="0" width="219" y="0" height="135"/></clipPath><mask id="614dced0b6"><g filter="url(#a6e757cab6)"><rect x="-90" width="1080" fill="#000000" y="-29.999999" height="359.999986" fill-opacity="0.58"/></g></mask><clipPath id="11512465a3"><path d="M 0.570312 1.085938 L 98.480469 1.085938 L 98.480469 91.902344 L 0.570312 91.902344 Z M 0.570312 1.085938 " clip-rule="nonzero"/></clipPath><clipPath id="de8ad6af98"><path d="M 49.386719 1.085938 C 22.425781 1.085938 0.570312 21.414062 0.570312 46.492188 C 0.570312 71.570312 22.425781 91.902344 49.386719 91.902344 C 76.347656 91.902344 98.203125 71.570312 98.203125 46.492188 C 98.203125 21.414062 76.347656 1.085938 49.386719 1.085938 Z M 49.386719 1.085938 " clip-rule="nonzero"/></clipPath><clipPath id="8ce99877de"><rect x="0" width="99" y="0" height="93"/></clipPath><mask id="c4c1a03e35"><g filter="url(#a6e757cab6)"><rect x="-90" width="1080" fill="#000000" y="-29.999999" height="359.999986" fill-opacity="0.58"/></g></mask><clipPath id="8c4b3ada4b"><path d="M 0.769531 1.15625 L 97.191406 1.15625 L 97.191406 97.578125 L 0.769531 97.578125 Z M 0.769531 1.15625 " clip-rule="nonzero"/></clipPath><clipPath id="4601b438cc"><path d="M 48.980469 1.15625 C 22.355469 1.15625 0.769531 22.742188 0.769531 49.367188 C 0.769531 75.996094 22.355469 97.578125 48.980469 97.578125 C 75.609375 97.578125 97.191406 75.996094 97.191406 49.367188 C 97.191406 22.742188 75.609375 1.15625 48.980469 1.15625 Z M 48.980469 1.15625 " clip-rule="nonzero"/></clipPath><clipPath id="a52004dfe1"><rect x="0" width="98" y="0" height="98"/></clipPath><mask id="3063d8e458"><g filter="url(#a6e757cab6)"><rect x="-90" width="1080" fill="#000000" y="-29.999999" height="359.999986" fill-opacity="0.58"/></g></mask><clipPath id="54d5b39f51"><path d="M 0.496094 0.0429688 L 96.917969 0.0429688 L 96.917969 91 L 0.496094 91 Z M 0.496094 0.0429688 " clip-rule="nonzero"/></clipPath><clipPath id="e06469c8eb"><path d="M 48.707031 0.0429688 C 22.082031 0.0429688 0.496094 21.625 0.496094 48.253906 C 0.496094 74.878906 22.082031 96.464844 48.707031 96.464844 C 75.335938 96.464844 96.917969 74.878906 96.917969 48.253906 C 96.917969 21.625 75.335938 0.0429688 48.707031 0.0429688 Z M 48.707031 0.0429688 " clip-rule="nonzero"/></clipPath><clipPath id="04a73cd429"><rect x="0" width="97" y="0" height="91"/></clipPath><mask id="96379d523b"><g filter="url(#a6e757cab6)"><rect x="-90" width="1080" fill="#000000" y="-29.999999" height="359.999986" fill-opacity="0.58"/></g></mask><clipPath id="bd35878a06"><path d="M 0.304688 0.441406 L 96.726562 0.441406 L 96.726562 96.863281 L 0.304688 96.863281 Z M 0.304688 0.441406 " clip-rule="nonzero"/></clipPath><clipPath id="6c83949e81"><path d="M 48.515625 0.441406 C 21.890625 0.441406 0.304688 22.027344 0.304688 48.652344 C 0.304688 75.277344 21.890625 96.863281 48.515625 96.863281 C 75.140625 96.863281 96.726562 75.277344 96.726562 48.652344 C 96.726562 22.027344 75.140625 0.441406 48.515625 0.441406 Z M 48.515625 0.441406 " clip-rule="nonzero"/></clipPath><clipPath id="ccda339680"><rect x="0" width="97" y="0" height="97"/></clipPath></defs><g clip-path="url(#2498c80fff)"><g clip-path="url(#75afebb206)"><path fill="#ffffff" d="M -14.335938 213.527344 L 914.597656 213.527344 L 914.597656 403.164062 L -14.335938 403.164062 Z M -14.335938 213.527344 " fill-opacity="1" fill-rule="nonzero"/></g></g><g clip-path="url(#57c47d4206)"><path fill="#ffffff" d="M 430.316406 177.085938 L 475.171875 177.085938 L 475.171875 189.773438 L 430.316406 189.773438 Z M 430.316406 177.085938 " fill-opacity="1" fill-rule="nonzero"/></g><g clip-path="url(#b3d9f36749)"><g clip-path="url(#e6a3401f59)"><path fill="#ffffff" d="M 417.777344 19.746094 L 487.6875 19.746094 L 487.6875 189.882812 L 417.777344 189.882812 Z M 417.777344 19.746094 " fill-opacity="1" fill-rule="nonzero"/></g></g><g clip-path="url(#6b3aef36d1)"><g clip-path="url(#c8eb990b8a)"><path fill="#ffffff" d="M 409.507812 139.832031 L 435.101562 139.832031 L 435.101562 213.515625 L 409.507812 213.515625 Z M 409.507812 139.832031 " fill-opacity="1" fill-rule="nonzero"/></g></g><g clip-path="url(#409894bb79)"><g clip-path="url(#1502cd9a8c)"><path fill="#ffffff" d="M 469.210938 139.832031 L 494.804688 139.832031 L 494.804688 213.515625 L 469.210938 213.515625 Z M 469.210938 139.832031 " fill-opacity="1" fill-rule="nonzero"/></g></g><g clip-path="url(#f6a5ed329d)"><g clip-path="url(#7841ed0d16)"><path fill="url(#0cae0b5398)" d="M 438.246094 122.089844 L 438.246094 151.402344 L 467.21875 151.402344 L 467.21875 122.089844 Z M 438.246094 122.089844 " fill-rule="nonzero"/></g></g><g mask="url(#14928d38d9)"><g transform="matrix(1, 0, 0, 1, 502, 142)"><g clip-path="url(#90b247e76a)"><g clip-path="url(#3220372822)"><path fill="#ffffff" d="M 217.207031 100.195312 C 217.207031 118.566406 202.316406 133.445312 183.933594 133.445312 L 50.832031 133.445312 C 23.277344 133.445312 0.902344 111.125 0.902344 83.585938 C 0.902344 56.015625 23.277344 33.695312 50.832031 33.695312 C 53.710938 33.695312 56.550781 33.945312 59.320312 34.414062 C 70.722656 14.136719 92.453125 0.441406 117.382812 0.441406 C 154.148438 0.441406 183.933594 30.203125 183.933594 66.945312 C 202.316406 66.945312 217.207031 81.828125 217.207031 100.195312 " fill-opacity="1" fill-rule="nonzero"/></g></g></g></g><g mask="url(#e4c02bf439)"><g transform="matrix(1, 0, 0, 1, 33, 126)"><g clip-path="url(#f1cd4c85ab)"><g clip-path="url(#8bbba8e7e4)"><path fill="#ffffff" d="M 217.496094 100.59375 C 217.496094 118.964844 202.601562 133.847656 184.222656 133.847656 L 51.121094 133.847656 C 23.5625 133.847656 1.1875 111.523438 1.1875 83.988281 C 1.1875 56.414062 23.5625 34.09375 51.121094 34.09375 C 53.996094 34.09375 56.839844 34.34375 59.609375 34.8125 C 71.011719 14.539062 92.742188 0.839844 117.671875 0.839844 C 154.433594 0.839844 184.222656 30.605469 184.222656 67.34375 C 202.601562 67.34375 217.496094 82.226562 217.496094 100.59375 " fill-opacity="1" fill-rule="nonzero"/></g></g></g></g><g mask="url(#614dced0b6)"><g transform="matrix(1, 0, 0, 1, 171, 176)"><g clip-path="url(#8ce99877de)"><g clip-path="url(#11512465a3)"><g clip-path="url(#de8ad6af98)"><path fill="#ffffff" d="M 0.570312 1.085938 L 98.125 1.085938 L 98.125 91.902344 L 0.570312 91.902344 Z M 0.570312 1.085938 " fill-opacity="1" fill-rule="nonzero"/></g></g></g></g></g><g mask="url(#c4c1a03e35)"><g transform="matrix(1, 0, 0, 1, 502, 175)"><g clip-path="url(#a52004dfe1)"><g clip-path="url(#8c4b3ada4b)"><g clip-path="url(#4601b438cc)"><path fill="#ffffff" d="M 0.769531 1.15625 L 97.191406 1.15625 L 97.191406 97.578125 L 0.769531 97.578125 Z M 0.769531 1.15625 " fill-opacity="1" fill-rule="nonzero"/></g></g></g></g></g><g mask="url(#3063d8e458)"><g transform="matrix(1, 0, 0, 1, 762, 209)"><g clip-path="url(#04a73cd429)"><g clip-path="url(#54d5b39f51)"><g clip-path="url(#e06469c8eb)"><path fill="#ffffff" d="M 0.496094 0.0429688 L 96.917969 0.0429688 L 96.917969 96.464844 L 0.496094 96.464844 Z M 0.496094 0.0429688 " fill-opacity="1" fill-rule="nonzero"/></g></g></g></g></g><g mask="url(#96379d523b)"><g transform="matrix(1, 0, 0, 1, 293, 193)"><g clip-path="url(#ccda339680)"><g clip-path="url(#bd35878a06)"><g clip-path="url(#6c83949e81)"><path fill="#ffffff" d="M 0.304688 0.441406 L 96.726562 0.441406 L 96.726562 96.863281 L 0.304688 96.863281 Z M 0.304688 0.441406 " fill-opacity="1" fill-rule="nonzero"/></g></g></g></g></g></svg>