<svg xmlns="http://www.w3.org/2000/svg" xmlns:xlink="http://www.w3.org/1999/xlink" width="1920" zoomAndPan="magnify" viewBox="0 0 1440 299.999988" height="400" preserveAspectRatio="xMidYMid meet" version="1.0"><defs><filter x="0%" y="0%" width="100%" height="100%" id="707e9c4aa2"><feColorMatrix values="0 0 0 0 1 0 0 0 0 1 0 0 0 0 1 0 0 0 1 0" color-interpolation-filters="sRGB"/></filter><clipPath id="636ba99598"><path d="M 263.710938 220.421875 L 1176.546875 220.421875 L 1176.546875 300 L 263.710938 300 Z M 263.710938 220.421875 " clip-rule="nonzero"/></clipPath><clipPath id="2759710ec8"><path d="M 720 220.421875 C 467.996094 220.421875 263.710938 262.140625 263.710938 313.597656 C 263.710938 365.058594 467.996094 406.777344 720 406.777344 C 972.003906 406.777344 1176.289062 365.058594 1176.289062 313.597656 C 1176.289062 262.140625 972.003906 220.421875 720 220.421875 Z M 720 220.421875 " clip-rule="nonzero"/></clipPath><clipPath id="5923a2c96c"><path d="M 700.65625 184.613281 L 744.710938 184.613281 L 744.710938 197.082031 L 700.65625 197.082031 Z M 700.65625 184.613281 " clip-rule="nonzero"/></clipPath><clipPath id="90a6d222c0"><path d="M 688.335938 30 L 757.035156 30 L 757.035156 197.191406 L 688.335938 197.191406 Z M 688.335938 30 " clip-rule="nonzero"/></clipPath><clipPath id="bd6e7d8fc9"><path d="M 722.683594 30 C 703.714844 30 688.335938 67.402344 688.335938 113.542969 C 688.335938 159.679688 703.714844 197.082031 722.683594 197.082031 C 741.65625 197.082031 757.035156 159.679688 757.035156 113.542969 C 757.035156 67.402344 741.65625 30 722.683594 30 Z M 722.683594 30 " clip-rule="nonzero"/></clipPath><clipPath id="1c8b3a53a8"><path d="M 680.210938 148.003906 L 705.359375 148.003906 L 705.359375 220.511719 L 680.210938 220.511719 Z M 680.210938 148.003906 " clip-rule="nonzero"/></clipPath><clipPath id="eedd99afbe"><path d="M 692.785156 148.003906 C 685.839844 148.003906 680.210938 164.214844 680.210938 184.214844 C 680.210938 204.210938 685.839844 220.421875 692.785156 220.421875 C 699.730469 220.421875 705.359375 204.210938 705.359375 184.214844 C 705.359375 164.214844 699.730469 148.003906 692.785156 148.003906 Z M 692.785156 148.003906 " clip-rule="nonzero"/></clipPath><clipPath id="c1785ea345"><path d="M 738.878906 148.003906 L 764.027344 148.003906 L 764.027344 220.511719 L 738.878906 220.511719 Z M 738.878906 148.003906 " clip-rule="nonzero"/></clipPath><clipPath id="46c6e38f21"><path d="M 751.453125 148.003906 C 744.507812 148.003906 738.878906 164.214844 738.878906 184.214844 C 738.878906 204.210938 744.507812 220.421875 751.453125 220.421875 C 758.398438 220.421875 764.027344 204.210938 764.027344 184.214844 C 764.027344 164.214844 758.398438 148.003906 751.453125 148.003906 Z M 751.453125 148.003906 " clip-rule="nonzero"/></clipPath><clipPath id="2ed15d0caf"><path d="M 708.449219 130.570312 L 736.921875 130.570312 L 736.921875 159.375 L 708.449219 159.375 Z M 708.449219 130.570312 " clip-rule="nonzero"/></clipPath><clipPath id="b1c1febdfc"><path d="M 722.683594 130.570312 C 714.824219 130.570312 708.449219 137.023438 708.449219 144.988281 C 708.449219 152.949219 714.824219 159.402344 722.683594 159.402344 C 730.546875 159.402344 736.921875 152.949219 736.921875 144.988281 C 736.921875 137.023438 730.546875 130.570312 722.683594 130.570312 Z M 722.683594 130.570312 " clip-rule="nonzero"/></clipPath><linearGradient x1="128" gradientTransform="matrix(0.111212, 0, 0, 0.111212, 708.4502, 130.570245)" y1="0.00629932" x2="128" gradientUnits="userSpaceOnUse" y2="259.00634" id="adaa1204f3"><stop stop-opacity="1" stop-color="rgb(15.299988%, 23.899841%, 70.599365%)" offset="0"/><stop stop-opacity="1" stop-color="rgb(15.335083%, 24.003601%, 70.640564%)" offset="0.0078125"/><stop stop-opacity="1" stop-color="rgb(15.405273%, 24.212646%, 70.722961%)" offset="0.015625"/><stop stop-opacity="1" stop-color="rgb(15.475464%, 24.420166%, 70.806885%)" offset="0.0234375"/><stop stop-opacity="1" stop-color="rgb(15.545654%, 24.629211%, 70.889282%)" offset="0.03125"/><stop stop-opacity="1" stop-color="rgb(15.615845%, 24.836731%, 70.97168%)" offset="0.0390625"/><stop stop-opacity="1" stop-color="rgb(15.686035%, 25.045776%, 71.054077%)" offset="0.046875"/><stop stop-opacity="1" stop-color="rgb(15.756226%, 25.253296%, 71.136475%)" offset="0.0546875"/><stop stop-opacity="1" stop-color="rgb(15.826416%, 25.462341%, 71.220398%)" offset="0.0625"/><stop stop-opacity="1" stop-color="rgb(15.896606%, 25.671387%, 71.302795%)" offset="0.0703125"/><stop stop-opacity="1" stop-color="rgb(15.966797%, 25.878906%, 71.385193%)" offset="0.078125"/><stop stop-opacity="1" stop-color="rgb(16.036987%, 26.087952%, 71.46759%)" offset="0.0859375"/><stop stop-opacity="1" stop-color="rgb(16.107178%, 26.295471%, 71.551514%)" offset="0.09375"/><stop stop-opacity="1" stop-color="rgb(16.177368%, 26.504517%, 71.633911%)" offset="0.101563"/><stop stop-opacity="1" stop-color="rgb(16.247559%, 26.712036%, 71.716309%)" offset="0.109375"/><stop stop-opacity="1" stop-color="rgb(16.317749%, 26.921082%, 71.798706%)" offset="0.117188"/><stop stop-opacity="1" stop-color="rgb(16.387939%, 27.130127%, 71.881104%)" offset="0.125"/><stop stop-opacity="1" stop-color="rgb(16.45813%, 27.337646%, 71.965027%)" offset="0.132813"/><stop stop-opacity="1" stop-color="rgb(16.52832%, 27.546692%, 72.047424%)" offset="0.140625"/><stop stop-opacity="1" stop-color="rgb(16.598511%, 27.754211%, 72.129822%)" offset="0.148438"/><stop stop-opacity="1" stop-color="rgb(16.668701%, 27.963257%, 72.212219%)" offset="0.15625"/><stop stop-opacity="1" stop-color="rgb(16.738892%, 28.172302%, 72.294617%)" offset="0.164063"/><stop stop-opacity="1" stop-color="rgb(16.809082%, 28.379822%, 72.37854%)" offset="0.171875"/><stop stop-opacity="1" stop-color="rgb(16.879272%, 28.588867%, 72.460938%)" offset="0.179688"/><stop stop-opacity="1" stop-color="rgb(16.949463%, 28.796387%, 72.543335%)" offset="0.1875"/><stop stop-opacity="1" stop-color="rgb(17.021179%, 29.005432%, 72.625732%)" offset="0.195313"/><stop stop-opacity="1" stop-color="rgb(17.09137%, 29.212952%, 72.709656%)" offset="0.203125"/><stop stop-opacity="1" stop-color="rgb(17.16156%, 29.421997%, 72.792053%)" offset="0.210938"/><stop stop-opacity="1" stop-color="rgb(17.23175%, 29.631042%, 72.874451%)" offset="0.21875"/><stop stop-opacity="1" stop-color="rgb(17.301941%, 29.838562%, 72.956848%)" offset="0.226563"/><stop stop-opacity="1" stop-color="rgb(17.372131%, 30.047607%, 73.039246%)" offset="0.234375"/><stop stop-opacity="1" stop-color="rgb(17.442322%, 30.255127%, 73.123169%)" offset="0.242188"/><stop stop-opacity="1" stop-color="rgb(17.512512%, 30.464172%, 73.205566%)" offset="0.25"/><stop stop-opacity="1" stop-color="rgb(17.582703%, 30.671692%, 73.287964%)" offset="0.257812"/><stop stop-opacity="1" stop-color="rgb(17.652893%, 30.880737%, 73.370361%)" offset="0.265625"/><stop stop-opacity="1" stop-color="rgb(17.723083%, 31.089783%, 73.454285%)" offset="0.273438"/><stop stop-opacity="1" stop-color="rgb(17.793274%, 31.297302%, 73.536682%)" offset="0.28125"/><stop stop-opacity="1" stop-color="rgb(17.863464%, 31.506348%, 73.61908%)" offset="0.289063"/><stop stop-opacity="1" stop-color="rgb(17.933655%, 31.713867%, 73.701477%)" offset="0.296875"/><stop stop-opacity="1" stop-color="rgb(18.003845%, 31.922913%, 73.783875%)" offset="0.304688"/><stop stop-opacity="1" stop-color="rgb(18.074036%, 32.130432%, 73.867798%)" offset="0.3125"/><stop stop-opacity="1" stop-color="rgb(18.144226%, 32.339478%, 73.950195%)" offset="0.320313"/><stop stop-opacity="1" stop-color="rgb(18.214417%, 32.548523%, 74.032593%)" offset="0.328125"/><stop stop-opacity="1" stop-color="rgb(18.284607%, 32.756042%, 74.11499%)" offset="0.335938"/><stop stop-opacity="1" stop-color="rgb(18.354797%, 32.965088%, 74.198914%)" offset="0.34375"/><stop stop-opacity="1" stop-color="rgb(18.424988%, 33.172607%, 74.281311%)" offset="0.351563"/><stop stop-opacity="1" stop-color="rgb(18.495178%, 33.381653%, 74.363708%)" offset="0.359375"/><stop stop-opacity="1" stop-color="rgb(18.565369%, 33.589172%, 74.446106%)" offset="0.367188"/><stop stop-opacity="1" stop-color="rgb(18.635559%, 33.798218%, 74.528503%)" offset="0.375"/><stop stop-opacity="1" stop-color="rgb(18.70575%, 34.007263%, 74.612427%)" offset="0.382813"/><stop stop-opacity="1" stop-color="rgb(18.77594%, 34.214783%, 74.694824%)" offset="0.390625"/><stop stop-opacity="1" stop-color="rgb(18.84613%, 34.423828%, 74.777222%)" offset="0.398438"/><stop stop-opacity="1" stop-color="rgb(18.916321%, 34.631348%, 74.859619%)" offset="0.40625"/><stop stop-opacity="1" stop-color="rgb(18.988037%, 34.840393%, 74.943542%)" offset="0.414063"/><stop stop-opacity="1" stop-color="rgb(19.058228%, 35.047913%, 75.02594%)" offset="0.421875"/><stop stop-opacity="1" stop-color="rgb(19.128418%, 35.256958%, 75.108337%)" offset="0.429688"/><stop stop-opacity="1" stop-color="rgb(19.198608%, 35.466003%, 75.190735%)" offset="0.4375"/><stop stop-opacity="1" stop-color="rgb(19.268799%, 35.673523%, 75.273132%)" offset="0.445313"/><stop stop-opacity="1" stop-color="rgb(19.338989%, 35.882568%, 75.357056%)" offset="0.453125"/><stop stop-opacity="1" stop-color="rgb(19.40918%, 36.090088%, 75.439453%)" offset="0.460938"/><stop stop-opacity="1" stop-color="rgb(19.47937%, 36.299133%, 75.521851%)" offset="0.46875"/><stop stop-opacity="1" stop-color="rgb(19.549561%, 36.506653%, 75.604248%)" offset="0.476563"/><stop stop-opacity="1" stop-color="rgb(19.619751%, 36.715698%, 75.688171%)" offset="0.484375"/><stop stop-opacity="1" stop-color="rgb(19.689941%, 36.924744%, 75.770569%)" offset="0.492188"/><stop stop-opacity="1" stop-color="rgb(19.760132%, 37.132263%, 75.852966%)" offset="0.5"/><stop stop-opacity="1" stop-color="rgb(19.830322%, 37.341309%, 75.935364%)" offset="0.507812"/><stop stop-opacity="1" stop-color="rgb(19.900513%, 37.548828%, 76.017761%)" offset="0.515625"/><stop stop-opacity="1" stop-color="rgb(19.970703%, 37.757874%, 76.101685%)" offset="0.523438"/><stop stop-opacity="1" stop-color="rgb(20.040894%, 37.965393%, 76.184082%)" offset="0.53125"/><stop stop-opacity="1" stop-color="rgb(20.111084%, 38.174438%, 76.266479%)" offset="0.539062"/><stop stop-opacity="1" stop-color="rgb(20.181274%, 38.383484%, 76.348877%)" offset="0.546875"/><stop stop-opacity="1" stop-color="rgb(20.251465%, 38.591003%, 76.4328%)" offset="0.554687"/><stop stop-opacity="1" stop-color="rgb(20.321655%, 38.800049%, 76.515198%)" offset="0.5625"/><stop stop-opacity="1" stop-color="rgb(20.391846%, 39.007568%, 76.597595%)" offset="0.570313"/><stop stop-opacity="1" stop-color="rgb(20.462036%, 39.216614%, 76.679993%)" offset="0.578125"/><stop stop-opacity="1" stop-color="rgb(20.532227%, 39.424133%, 76.76239%)" offset="0.585938"/><stop stop-opacity="1" stop-color="rgb(20.602417%, 39.633179%, 76.846313%)" offset="0.59375"/><stop stop-opacity="1" stop-color="rgb(20.672607%, 39.842224%, 76.928711%)" offset="0.601562"/><stop stop-opacity="1" stop-color="rgb(20.742798%, 40.049744%, 77.011108%)" offset="0.609375"/><stop stop-opacity="1" stop-color="rgb(20.812988%, 40.258789%, 77.093506%)" offset="0.617188"/><stop stop-opacity="1" stop-color="rgb(20.884705%, 40.466309%, 77.175903%)" offset="0.625"/><stop stop-opacity="1" stop-color="rgb(20.954895%, 40.675354%, 77.259827%)" offset="0.632812"/><stop stop-opacity="1" stop-color="rgb(21.025085%, 40.884399%, 77.342224%)" offset="0.640625"/><stop stop-opacity="1" stop-color="rgb(21.095276%, 41.091919%, 77.424622%)" offset="0.648438"/><stop stop-opacity="1" stop-color="rgb(21.165466%, 41.300964%, 77.507019%)" offset="0.65625"/><stop stop-opacity="1" stop-color="rgb(21.235657%, 41.508484%, 77.590942%)" offset="0.664062"/><stop stop-opacity="1" stop-color="rgb(21.305847%, 41.717529%, 77.67334%)" offset="0.671875"/><stop stop-opacity="1" stop-color="rgb(21.376038%, 41.925049%, 77.755737%)" offset="0.679687"/><stop stop-opacity="1" stop-color="rgb(21.446228%, 42.134094%, 77.838135%)" offset="0.6875"/><stop stop-opacity="1" stop-color="rgb(21.516418%, 42.34314%, 77.920532%)" offset="0.695313"/><stop stop-opacity="1" stop-color="rgb(21.586609%, 42.550659%, 78.004456%)" offset="0.703125"/><stop stop-opacity="1" stop-color="rgb(21.656799%, 42.759705%, 78.086853%)" offset="0.710938"/><stop stop-opacity="1" stop-color="rgb(21.72699%, 42.967224%, 78.16925%)" offset="0.71875"/><stop stop-opacity="1" stop-color="rgb(21.79718%, 43.17627%, 78.251648%)" offset="0.726562"/><stop stop-opacity="1" stop-color="rgb(21.867371%, 43.383789%, 78.335571%)" offset="0.734375"/><stop stop-opacity="1" stop-color="rgb(21.937561%, 43.592834%, 78.417969%)" offset="0.742188"/><stop stop-opacity="1" stop-color="rgb(22.007751%, 43.80188%, 78.500366%)" offset="0.75"/><stop stop-opacity="1" stop-color="rgb(22.077942%, 44.009399%, 78.582764%)" offset="0.757812"/><stop stop-opacity="1" stop-color="rgb(22.148132%, 44.218445%, 78.665161%)" offset="0.765625"/><stop stop-opacity="1" stop-color="rgb(22.218323%, 44.425964%, 78.749084%)" offset="0.773438"/><stop stop-opacity="1" stop-color="rgb(22.288513%, 44.63501%, 78.831482%)" offset="0.78125"/><stop stop-opacity="1" stop-color="rgb(22.358704%, 44.842529%, 78.913879%)" offset="0.789062"/><stop stop-opacity="1" stop-color="rgb(22.428894%, 45.051575%, 78.996277%)" offset="0.796875"/><stop stop-opacity="1" stop-color="rgb(22.499084%, 45.26062%, 79.0802%)" offset="0.804687"/><stop stop-opacity="1" stop-color="rgb(22.569275%, 45.46814%, 79.162598%)" offset="0.8125"/><stop stop-opacity="1" stop-color="rgb(22.639465%, 45.677185%, 79.244995%)" offset="0.820313"/><stop stop-opacity="1" stop-color="rgb(22.709656%, 45.884705%, 79.327393%)" offset="0.828125"/><stop stop-opacity="1" stop-color="rgb(22.779846%, 46.09375%, 79.40979%)" offset="0.835938"/><stop stop-opacity="1" stop-color="rgb(22.851562%, 46.30127%, 79.493713%)" offset="0.84375"/><stop stop-opacity="1" stop-color="rgb(22.921753%, 46.510315%, 79.576111%)" offset="0.851562"/><stop stop-opacity="1" stop-color="rgb(22.991943%, 46.71936%, 79.658508%)" offset="0.859375"/><stop stop-opacity="1" stop-color="rgb(23.062134%, 46.92688%, 79.740906%)" offset="0.867188"/><stop stop-opacity="1" stop-color="rgb(23.132324%, 47.135925%, 79.824829%)" offset="0.875"/><stop stop-opacity="1" stop-color="rgb(23.202515%, 47.343445%, 79.907227%)" offset="0.882812"/><stop stop-opacity="1" stop-color="rgb(23.272705%, 47.55249%, 79.989624%)" offset="0.890625"/><stop stop-opacity="1" stop-color="rgb(23.342896%, 47.76001%, 80.072021%)" offset="0.898438"/><stop stop-opacity="1" stop-color="rgb(23.413086%, 47.969055%, 80.154419%)" offset="0.90625"/><stop stop-opacity="1" stop-color="rgb(23.483276%, 48.178101%, 80.238342%)" offset="0.914062"/><stop stop-opacity="1" stop-color="rgb(23.553467%, 48.38562%, 80.32074%)" offset="0.921875"/><stop stop-opacity="1" stop-color="rgb(23.623657%, 48.594666%, 80.403137%)" offset="0.929687"/><stop stop-opacity="1" stop-color="rgb(23.693848%, 48.802185%, 80.485535%)" offset="0.9375"/><stop stop-opacity="1" stop-color="rgb(23.764038%, 49.01123%, 80.569458%)" offset="0.945313"/><stop stop-opacity="1" stop-color="rgb(23.834229%, 49.21875%, 80.651855%)" offset="0.953125"/><stop stop-opacity="1" stop-color="rgb(23.904419%, 49.427795%, 80.734253%)" offset="0.960938"/><stop stop-opacity="1" stop-color="rgb(23.974609%, 49.636841%, 80.81665%)" offset="0.96875"/><stop stop-opacity="1" stop-color="rgb(24.0448%, 49.84436%, 80.899048%)" offset="0.976562"/><stop stop-opacity="1" stop-color="rgb(24.11499%, 50.053406%, 80.982971%)" offset="0.984375"/><stop stop-opacity="1" stop-color="rgb(24.185181%, 50.260925%, 81.065369%)" offset="0.992188"/><stop stop-opacity="1" stop-color="rgb(24.255371%, 50.469971%, 81.147766%)" offset="1"/></linearGradient><mask id="3454275a8f"><g filter="url(#707e9c4aa2)"><rect x="-144" width="1728" fill="#000000" y="-29.999999" height="359.999986" fill-opacity="0.58"/></g></mask><clipPath id="4ea46e9aac"><path d="M 0.984375 0.574219 L 213.542969 0.574219 L 213.542969 131.269531 L 0.984375 131.269531 Z M 0.984375 0.574219 " clip-rule="nonzero"/></clipPath><clipPath id="79fec8003e"><rect x="0" width="215" y="0" height="132"/></clipPath><mask id="746156bae4"><g filter="url(#707e9c4aa2)"><rect x="-144" width="1728" fill="#000000" y="-29.999999" height="359.999986" fill-opacity="0.58"/></g></mask><clipPath id="92c53e74f4"><path d="M 0.394531 0.242188 L 212.953125 0.242188 L 212.953125 130.941406 L 0.394531 130.941406 Z M 0.394531 0.242188 " clip-rule="nonzero"/></clipPath><clipPath id="be4105b573"><rect x="0" width="214" y="0" height="132"/></clipPath><mask id="853916c34e"><g filter="url(#707e9c4aa2)"><rect x="-144" width="1728" fill="#000000" y="-29.999999" height="359.999986" fill-opacity="0.58"/></g></mask><clipPath id="3f9143bf33"><path d="M 0.394531 0.613281 L 96.609375 0.613281 L 96.609375 89.855469 L 0.394531 89.855469 Z M 0.394531 0.613281 " clip-rule="nonzero"/></clipPath><clipPath id="6065d2d72a"><path d="M 48.367188 0.613281 C 21.871094 0.613281 0.394531 20.59375 0.394531 45.234375 C 0.394531 69.878906 21.871094 89.855469 48.367188 89.855469 C 74.859375 89.855469 96.335938 69.878906 96.335938 45.234375 C 96.335938 20.59375 74.859375 0.613281 48.367188 0.613281 Z M 48.367188 0.613281 " clip-rule="nonzero"/></clipPath><clipPath id="ae2ae92331"><rect x="0" width="97" y="0" height="91"/></clipPath><mask id="9bfdf8c262"><g filter="url(#707e9c4aa2)"><rect x="-144" width="1728" fill="#000000" y="-29.999999" height="359.999986" fill-opacity="0.58"/></g></mask><clipPath id="5ba59758d7"><path d="M 0.855469 0.703125 L 95.609375 0.703125 L 95.609375 95.453125 L 0.855469 95.453125 Z M 0.855469 0.703125 " clip-rule="nonzero"/></clipPath><clipPath id="98cf3c4d43"><path d="M 48.230469 0.703125 C 22.066406 0.703125 0.855469 21.914062 0.855469 48.078125 C 0.855469 74.242188 22.066406 95.453125 48.230469 95.453125 C 74.398438 95.453125 95.609375 74.242188 95.609375 48.078125 C 95.609375 21.914062 74.398438 0.703125 48.230469 0.703125 Z M 48.230469 0.703125 " clip-rule="nonzero"/></clipPath><clipPath id="8fcd6fdcf7"><rect x="0" width="96" y="0" height="96"/></clipPath><mask id="98cffa7e1b"><g filter="url(#707e9c4aa2)"><rect x="-144" width="1728" fill="#000000" y="-29.999999" height="359.999986" fill-opacity="0.58"/></g></mask><clipPath id="ffd0664632"><path d="M 1.082031 0.015625 L 95.835938 0.015625 L 95.835938 84 L 1.082031 84 Z M 1.082031 0.015625 " clip-rule="nonzero"/></clipPath><clipPath id="d65117c37b"><path d="M 48.457031 0.015625 C 22.292969 0.015625 1.082031 21.226562 1.082031 47.390625 C 1.082031 73.558594 22.292969 94.769531 48.457031 94.769531 C 74.625 94.769531 95.835938 73.558594 95.835938 47.390625 C 95.835938 21.226562 74.625 0.015625 48.457031 0.015625 Z M 48.457031 0.015625 " clip-rule="nonzero"/></clipPath><clipPath id="8d4e73513a"><rect x="0" width="96" y="0" height="84"/></clipPath><mask id="86af3b61b3"><g filter="url(#707e9c4aa2)"><rect x="-144" width="1728" fill="#000000" y="-29.999999" height="359.999986" fill-opacity="0.58"/></g></mask><clipPath id="18b20041ab"><path d="M 1.019531 0.6875 L 95.769531 0.6875 L 95.769531 95.4375 L 1.019531 95.4375 Z M 1.019531 0.6875 " clip-rule="nonzero"/></clipPath><clipPath id="26ea50a634"><path d="M 48.394531 0.6875 C 22.230469 0.6875 1.019531 21.898438 1.019531 48.0625 C 1.019531 74.226562 22.230469 95.4375 48.394531 95.4375 C 74.558594 95.4375 95.769531 74.226562 95.769531 48.0625 C 95.769531 21.898438 74.558594 0.6875 48.394531 0.6875 Z M 48.394531 0.6875 " clip-rule="nonzero"/></clipPath><clipPath id="6302eb84aa"><rect x="0" width="96" y="0" height="96"/></clipPath></defs><g clip-path="url(#636ba99598)"><g clip-path="url(#2759710ec8)"><path fill="#ffffff" d="M 263.710938 220.421875 L 1176.546875 220.421875 L 1176.546875 406.777344 L 263.710938 406.777344 Z M 263.710938 220.421875 " fill-opacity="1" fill-rule="nonzero"/></g></g><g clip-path="url(#5923a2c96c)"><path fill="#ffffff" d="M 700.65625 184.613281 L 744.734375 184.613281 L 744.734375 197.082031 L 700.65625 197.082031 Z M 700.65625 184.613281 " fill-opacity="1" fill-rule="nonzero"/></g><g clip-path="url(#90a6d222c0)"><g clip-path="url(#bd6e7d8fc9)"><path fill="#ffffff" d="M 688.335938 30 L 757.035156 30 L 757.035156 197.191406 L 688.335938 197.191406 Z M 688.335938 30 " fill-opacity="1" fill-rule="nonzero"/></g></g><g clip-path="url(#1c8b3a53a8)"><g clip-path="url(#eedd99afbe)"><path fill="#ffffff" d="M 680.210938 148.003906 L 705.359375 148.003906 L 705.359375 220.414062 L 680.210938 220.414062 Z M 680.210938 148.003906 " fill-opacity="1" fill-rule="nonzero"/></g></g><g clip-path="url(#c1785ea345)"><g clip-path="url(#46c6e38f21)"><path fill="#ffffff" d="M 738.878906 148.003906 L 764.027344 148.003906 L 764.027344 220.414062 L 738.878906 220.414062 Z M 738.878906 148.003906 " fill-opacity="1" fill-rule="nonzero"/></g></g><g clip-path="url(#2ed15d0caf)"><g clip-path="url(#b1c1febdfc)"><path fill="url(#adaa1204f3)" d="M 708.449219 130.570312 L 708.449219 159.375 L 736.921875 159.375 L 736.921875 130.570312 Z M 708.449219 130.570312 " fill-rule="nonzero"/></g></g><g mask="url(#3454275a8f)"><g transform="matrix(1, 0, 0, 1, 771, 150)"><g clip-path="url(#79fec8003e)"><g clip-path="url(#4ea46e9aac)"><path fill="#ffffff" d="M 213.542969 98.59375 C 213.542969 116.648438 198.910156 131.269531 180.847656 131.269531 L 50.050781 131.269531 C 22.972656 131.269531 0.984375 109.335938 0.984375 82.273438 C 0.984375 55.179688 22.972656 33.246094 50.050781 33.246094 C 52.878906 33.246094 55.671875 33.492188 58.390625 33.953125 C 69.597656 14.03125 90.949219 0.570312 115.449219 0.570312 C 151.574219 0.570312 180.847656 29.816406 180.847656 65.921875 C 198.910156 65.921875 213.542969 80.546875 213.542969 98.59375 " fill-opacity="1" fill-rule="nonzero"/></g></g></g></g><g mask="url(#746156bae4)"><g transform="matrix(1, 0, 0, 1, 311, 135)"><g clip-path="url(#be4105b573)"><g clip-path="url(#92c53e74f4)"><path fill="#ffffff" d="M 212.953125 98.265625 C 212.953125 116.316406 198.316406 130.941406 180.253906 130.941406 L 49.460938 130.941406 C 22.378906 130.941406 0.394531 109.003906 0.394531 81.945312 C 0.394531 54.851562 22.378906 32.917969 49.460938 32.917969 C 52.285156 32.917969 55.082031 33.164062 57.800781 33.621094 C 69.007812 13.699219 90.359375 0.238281 114.855469 0.238281 C 150.984375 0.238281 180.253906 29.488281 180.253906 65.59375 C 198.316406 65.59375 212.953125 80.214844 212.953125 98.265625 " fill-opacity="1" fill-rule="nonzero"/></g></g></g></g><g mask="url(#853916c34e)"><g transform="matrix(1, 0, 0, 1, 446, 184)"><g clip-path="url(#ae2ae92331)"><g clip-path="url(#3f9143bf33)"><g clip-path="url(#6065d2d72a)"><path fill="#ffffff" d="M 0.394531 0.613281 L 96.257812 0.613281 L 96.257812 89.855469 L 0.394531 89.855469 Z M 0.394531 0.613281 " fill-opacity="1" fill-rule="nonzero"/></g></g></g></g></g><g mask="url(#9bfdf8c262)"><g transform="matrix(1, 0, 0, 1, 771, 183)"><g clip-path="url(#8fcd6fdcf7)"><g clip-path="url(#5ba59758d7)"><g clip-path="url(#98cf3c4d43)"><path fill="#ffffff" d="M 0.855469 0.703125 L 95.609375 0.703125 L 95.609375 95.453125 L 0.855469 95.453125 Z M 0.855469 0.703125 " fill-opacity="1" fill-rule="nonzero"/></g></g></g></g></g><g mask="url(#98cffa7e1b)"><g transform="matrix(1, 0, 0, 1, 1026, 216)"><g clip-path="url(#8d4e73513a)"><g clip-path="url(#ffd0664632)"><g clip-path="url(#d65117c37b)"><path fill="#ffffff" d="M 1.082031 0.015625 L 95.835938 0.015625 L 95.835938 94.769531 L 1.082031 94.769531 Z M 1.082031 0.015625 " fill-opacity="1" fill-rule="nonzero"/></g></g></g></g></g><g mask="url(#86af3b61b3)"><g transform="matrix(1, 0, 0, 1, 565, 200)"><g clip-path="url(#6302eb84aa)"><g clip-path="url(#18b20041ab)"><g clip-path="url(#26ea50a634)"><path fill="#ffffff" d="M 1.019531 0.6875 L 95.769531 0.6875 L 95.769531 95.4375 L 1.019531 95.4375 Z M 1.019531 0.6875 " fill-opacity="1" fill-rule="nonzero"/></g></g></g></g></g></svg>