<svg xmlns="http://www.w3.org/2000/svg" xmlns:xlink="http://www.w3.org/1999/xlink" width="1080" zoomAndPan="magnify" viewBox="0 0 810 525.000007" height="700" preserveAspectRatio="xMidYMid meet" version="1.0"><defs><filter x="0%" y="0%" width="100%" height="100%" id="9f519b3d93"><feColorMatrix values="0 0 0 0 1 0 0 0 0 1 0 0 0 0 1 0 0 0 1 0" color-interpolation-filters="sRGB"/></filter><clipPath id="30a998475c"><path d="M 175.558594 493.460938 L 634.570312 493.460938 L 634.570312 524 L 175.558594 524 Z M 175.558594 493.460938 " clip-rule="nonzero"/></clipPath><clipPath id="f2bd099421"><path d="M 405 493.460938 C 278.28125 493.460938 175.558594 514.4375 175.558594 540.316406 C 175.558594 566.191406 278.28125 587.167969 405 587.167969 C 531.71875 587.167969 634.441406 566.191406 634.441406 540.316406 C 634.441406 514.4375 531.71875 493.460938 405 493.460938 Z M 405 493.460938 " clip-rule="nonzero"/></clipPath><clipPath id="a7d2888e6f"><path d="M 395.273438 475.457031 L 417.425781 475.457031 L 417.425781 481.726562 L 395.273438 481.726562 Z M 395.273438 475.457031 " clip-rule="nonzero"/></clipPath><clipPath id="0e5fe86d50"><path d="M 389.078125 397.710938 L 423.625 397.710938 L 423.625 481.78125 L 389.078125 481.78125 Z M 389.078125 397.710938 " clip-rule="nonzero"/></clipPath><clipPath id="08e43ffdf2"><path d="M 406.351562 397.710938 C 396.8125 397.710938 389.078125 416.515625 389.078125 439.71875 C 389.078125 462.917969 396.8125 481.726562 406.351562 481.726562 C 415.890625 481.726562 423.625 462.917969 423.625 439.71875 C 423.625 416.515625 415.890625 397.710938 406.351562 397.710938 Z M 406.351562 397.710938 " clip-rule="nonzero"/></clipPath><clipPath id="c76bfd27f9"><path d="M 384.992188 457.046875 L 397.640625 457.046875 L 397.640625 493.507812 L 384.992188 493.507812 Z M 384.992188 457.046875 " clip-rule="nonzero"/></clipPath><clipPath id="ea38aeed38"><path d="M 391.316406 457.046875 C 387.824219 457.046875 384.992188 465.199219 384.992188 475.253906 C 384.992188 485.308594 387.824219 493.460938 391.316406 493.460938 C 394.808594 493.460938 397.640625 485.308594 397.640625 475.253906 C 397.640625 465.199219 394.808594 457.046875 391.316406 457.046875 Z M 391.316406 457.046875 " clip-rule="nonzero"/></clipPath><clipPath id="20c94aa967"><path d="M 414.492188 457.046875 L 427.140625 457.046875 L 427.140625 493.507812 L 414.492188 493.507812 Z M 414.492188 457.046875 " clip-rule="nonzero"/></clipPath><clipPath id="29f6375783"><path d="M 420.816406 457.046875 C 417.324219 457.046875 414.492188 465.199219 414.492188 475.253906 C 414.492188 485.308594 417.324219 493.460938 420.816406 493.460938 C 424.308594 493.460938 427.140625 485.308594 427.140625 475.253906 C 427.140625 465.199219 424.308594 457.046875 420.816406 457.046875 Z M 420.816406 457.046875 " clip-rule="nonzero"/></clipPath><clipPath id="48014fb74c"><path d="M 399.191406 448.28125 L 413.507812 448.28125 L 413.507812 462.765625 L 399.191406 462.765625 Z M 399.191406 448.28125 " clip-rule="nonzero"/></clipPath><clipPath id="07478f4950"><path d="M 406.351562 448.28125 C 402.398438 448.28125 399.191406 451.527344 399.191406 455.53125 C 399.191406 459.53125 402.398438 462.777344 406.351562 462.777344 C 410.304688 462.777344 413.507812 459.53125 413.507812 455.53125 C 413.507812 451.527344 410.304688 448.28125 406.351562 448.28125 Z M 406.351562 448.28125 " clip-rule="nonzero"/></clipPath><linearGradient x1="128" gradientTransform="matrix(0.0559219, 0, 0, 0.0559219, 399.192332, 448.280559)" y1="0.00635903" x2="128" gradientUnits="userSpaceOnUse" y2="259.0065" id="0bc94e82cd"><stop stop-opacity="1" stop-color="rgb(15.299988%, 23.899841%, 70.599365%)" offset="0"/><stop stop-opacity="1" stop-color="rgb(15.335083%, 24.003601%, 70.640564%)" offset="0.0078125"/><stop stop-opacity="1" stop-color="rgb(15.405273%, 24.212646%, 70.722961%)" offset="0.015625"/><stop stop-opacity="1" stop-color="rgb(15.475464%, 24.420166%, 70.806885%)" offset="0.0234375"/><stop stop-opacity="1" stop-color="rgb(15.545654%, 24.629211%, 70.889282%)" offset="0.03125"/><stop stop-opacity="1" stop-color="rgb(15.615845%, 24.836731%, 70.97168%)" offset="0.0390625"/><stop stop-opacity="1" stop-color="rgb(15.686035%, 25.045776%, 71.054077%)" offset="0.046875"/><stop stop-opacity="1" stop-color="rgb(15.756226%, 25.253296%, 71.136475%)" offset="0.0546875"/><stop stop-opacity="1" stop-color="rgb(15.826416%, 25.462341%, 71.220398%)" offset="0.0625"/><stop stop-opacity="1" stop-color="rgb(15.896606%, 25.671387%, 71.302795%)" offset="0.0703125"/><stop stop-opacity="1" stop-color="rgb(15.966797%, 25.878906%, 71.385193%)" offset="0.078125"/><stop stop-opacity="1" stop-color="rgb(16.036987%, 26.087952%, 71.46759%)" offset="0.0859375"/><stop stop-opacity="1" stop-color="rgb(16.107178%, 26.295471%, 71.551514%)" offset="0.09375"/><stop stop-opacity="1" stop-color="rgb(16.177368%, 26.504517%, 71.633911%)" offset="0.101562"/><stop stop-opacity="1" stop-color="rgb(16.247559%, 26.712036%, 71.716309%)" offset="0.109375"/><stop stop-opacity="1" stop-color="rgb(16.317749%, 26.921082%, 71.798706%)" offset="0.117188"/><stop stop-opacity="1" stop-color="rgb(16.387939%, 27.130127%, 71.881104%)" offset="0.125"/><stop stop-opacity="1" stop-color="rgb(16.45813%, 27.337646%, 71.965027%)" offset="0.132812"/><stop stop-opacity="1" stop-color="rgb(16.52832%, 27.546692%, 72.047424%)" offset="0.140625"/><stop stop-opacity="1" stop-color="rgb(16.598511%, 27.754211%, 72.129822%)" offset="0.148438"/><stop stop-opacity="1" stop-color="rgb(16.668701%, 27.963257%, 72.212219%)" offset="0.15625"/><stop stop-opacity="1" stop-color="rgb(16.738892%, 28.172302%, 72.294617%)" offset="0.164062"/><stop stop-opacity="1" stop-color="rgb(16.809082%, 28.379822%, 72.37854%)" offset="0.171875"/><stop stop-opacity="1" stop-color="rgb(16.879272%, 28.588867%, 72.460938%)" offset="0.179688"/><stop stop-opacity="1" stop-color="rgb(16.949463%, 28.796387%, 72.543335%)" offset="0.1875"/><stop stop-opacity="1" stop-color="rgb(17.021179%, 29.005432%, 72.625732%)" offset="0.195312"/><stop stop-opacity="1" stop-color="rgb(17.09137%, 29.212952%, 72.709656%)" offset="0.203125"/><stop stop-opacity="1" stop-color="rgb(17.16156%, 29.421997%, 72.792053%)" offset="0.210938"/><stop stop-opacity="1" stop-color="rgb(17.23175%, 29.631042%, 72.874451%)" offset="0.21875"/><stop stop-opacity="1" stop-color="rgb(17.301941%, 29.838562%, 72.956848%)" offset="0.226562"/><stop stop-opacity="1" stop-color="rgb(17.372131%, 30.047607%, 73.039246%)" offset="0.234375"/><stop stop-opacity="1" stop-color="rgb(17.442322%, 30.255127%, 73.123169%)" offset="0.242188"/><stop stop-opacity="1" stop-color="rgb(17.512512%, 30.464172%, 73.205566%)" offset="0.25"/><stop stop-opacity="1" stop-color="rgb(17.582703%, 30.671692%, 73.287964%)" offset="0.257812"/><stop stop-opacity="1" stop-color="rgb(17.652893%, 30.880737%, 73.370361%)" offset="0.265625"/><stop stop-opacity="1" stop-color="rgb(17.723083%, 31.089783%, 73.454285%)" offset="0.273438"/><stop stop-opacity="1" stop-color="rgb(17.793274%, 31.297302%, 73.536682%)" offset="0.28125"/><stop stop-opacity="1" stop-color="rgb(17.863464%, 31.506348%, 73.61908%)" offset="0.289063"/><stop stop-opacity="1" stop-color="rgb(17.933655%, 31.713867%, 73.701477%)" offset="0.296875"/><stop stop-opacity="1" stop-color="rgb(18.003845%, 31.922913%, 73.783875%)" offset="0.304688"/><stop stop-opacity="1" stop-color="rgb(18.074036%, 32.130432%, 73.867798%)" offset="0.3125"/><stop stop-opacity="1" stop-color="rgb(18.144226%, 32.339478%, 73.950195%)" offset="0.320312"/><stop stop-opacity="1" stop-color="rgb(18.214417%, 32.548523%, 74.032593%)" offset="0.328125"/><stop stop-opacity="1" stop-color="rgb(18.284607%, 32.756042%, 74.11499%)" offset="0.335938"/><stop stop-opacity="1" stop-color="rgb(18.354797%, 32.965088%, 74.198914%)" offset="0.34375"/><stop stop-opacity="1" stop-color="rgb(18.424988%, 33.172607%, 74.281311%)" offset="0.351563"/><stop stop-opacity="1" stop-color="rgb(18.495178%, 33.381653%, 74.363708%)" offset="0.359375"/><stop stop-opacity="1" stop-color="rgb(18.565369%, 33.589172%, 74.446106%)" offset="0.367188"/><stop stop-opacity="1" stop-color="rgb(18.635559%, 33.798218%, 74.528503%)" offset="0.375"/><stop stop-opacity="1" stop-color="rgb(18.70575%, 34.007263%, 74.612427%)" offset="0.382812"/><stop stop-opacity="1" stop-color="rgb(18.77594%, 34.214783%, 74.694824%)" offset="0.390625"/><stop stop-opacity="1" stop-color="rgb(18.84613%, 34.423828%, 74.777222%)" offset="0.398437"/><stop stop-opacity="1" stop-color="rgb(18.916321%, 34.631348%, 74.859619%)" offset="0.40625"/><stop stop-opacity="1" stop-color="rgb(18.988037%, 34.840393%, 74.943542%)" offset="0.414063"/><stop stop-opacity="1" stop-color="rgb(19.058228%, 35.047913%, 75.02594%)" offset="0.421875"/><stop stop-opacity="1" stop-color="rgb(19.128418%, 35.256958%, 75.108337%)" offset="0.429688"/><stop stop-opacity="1" stop-color="rgb(19.198608%, 35.466003%, 75.190735%)" offset="0.4375"/><stop stop-opacity="1" stop-color="rgb(19.268799%, 35.673523%, 75.273132%)" offset="0.445312"/><stop stop-opacity="1" stop-color="rgb(19.338989%, 35.882568%, 75.357056%)" offset="0.453125"/><stop stop-opacity="1" stop-color="rgb(19.40918%, 36.090088%, 75.439453%)" offset="0.460938"/><stop stop-opacity="1" stop-color="rgb(19.47937%, 36.299133%, 75.521851%)" offset="0.46875"/><stop stop-opacity="1" stop-color="rgb(19.549561%, 36.506653%, 75.604248%)" offset="0.476563"/><stop stop-opacity="1" stop-color="rgb(19.619751%, 36.715698%, 75.688171%)" offset="0.484375"/><stop stop-opacity="1" stop-color="rgb(19.689941%, 36.924744%, 75.770569%)" offset="0.492188"/><stop stop-opacity="1" stop-color="rgb(19.760132%, 37.132263%, 75.852966%)" offset="0.5"/><stop stop-opacity="1" stop-color="rgb(19.830322%, 37.341309%, 75.935364%)" offset="0.507812"/><stop stop-opacity="1" stop-color="rgb(19.900513%, 37.548828%, 76.017761%)" offset="0.515625"/><stop stop-opacity="1" stop-color="rgb(19.970703%, 37.757874%, 76.101685%)" offset="0.523438"/><stop stop-opacity="1" stop-color="rgb(20.040894%, 37.965393%, 76.184082%)" offset="0.53125"/><stop stop-opacity="1" stop-color="rgb(20.111084%, 38.174438%, 76.266479%)" offset="0.539062"/><stop stop-opacity="1" stop-color="rgb(20.181274%, 38.383484%, 76.348877%)" offset="0.546875"/><stop stop-opacity="1" stop-color="rgb(20.251465%, 38.591003%, 76.4328%)" offset="0.554688"/><stop stop-opacity="1" stop-color="rgb(20.321655%, 38.800049%, 76.515198%)" offset="0.5625"/><stop stop-opacity="1" stop-color="rgb(20.391846%, 39.007568%, 76.597595%)" offset="0.570313"/><stop stop-opacity="1" stop-color="rgb(20.462036%, 39.216614%, 76.679993%)" offset="0.578125"/><stop stop-opacity="1" stop-color="rgb(20.532227%, 39.424133%, 76.76239%)" offset="0.585938"/><stop stop-opacity="1" stop-color="rgb(20.602417%, 39.633179%, 76.846313%)" offset="0.59375"/><stop stop-opacity="1" stop-color="rgb(20.672607%, 39.842224%, 76.928711%)" offset="0.601563"/><stop stop-opacity="1" stop-color="rgb(20.742798%, 40.049744%, 77.011108%)" offset="0.609375"/><stop stop-opacity="1" stop-color="rgb(20.812988%, 40.258789%, 77.093506%)" offset="0.617188"/><stop stop-opacity="1" stop-color="rgb(20.884705%, 40.466309%, 77.175903%)" offset="0.625"/><stop stop-opacity="1" stop-color="rgb(20.954895%, 40.675354%, 77.259827%)" offset="0.632812"/><stop stop-opacity="1" stop-color="rgb(21.025085%, 40.884399%, 77.342224%)" offset="0.640625"/><stop stop-opacity="1" stop-color="rgb(21.095276%, 41.091919%, 77.424622%)" offset="0.648438"/><stop stop-opacity="1" stop-color="rgb(21.165466%, 41.300964%, 77.507019%)" offset="0.65625"/><stop stop-opacity="1" stop-color="rgb(21.235657%, 41.508484%, 77.590942%)" offset="0.664062"/><stop stop-opacity="1" stop-color="rgb(21.305847%, 41.717529%, 77.67334%)" offset="0.671875"/><stop stop-opacity="1" stop-color="rgb(21.376038%, 41.925049%, 77.755737%)" offset="0.679687"/><stop stop-opacity="1" stop-color="rgb(21.446228%, 42.134094%, 77.838135%)" offset="0.6875"/><stop stop-opacity="1" stop-color="rgb(21.516418%, 42.34314%, 77.920532%)" offset="0.695313"/><stop stop-opacity="1" stop-color="rgb(21.586609%, 42.550659%, 78.004456%)" offset="0.703125"/><stop stop-opacity="1" stop-color="rgb(21.656799%, 42.759705%, 78.086853%)" offset="0.710938"/><stop stop-opacity="1" stop-color="rgb(21.72699%, 42.967224%, 78.16925%)" offset="0.71875"/><stop stop-opacity="1" stop-color="rgb(21.79718%, 43.17627%, 78.251648%)" offset="0.726563"/><stop stop-opacity="1" stop-color="rgb(21.867371%, 43.383789%, 78.335571%)" offset="0.734375"/><stop stop-opacity="1" stop-color="rgb(21.937561%, 43.592834%, 78.417969%)" offset="0.742188"/><stop stop-opacity="1" stop-color="rgb(22.007751%, 43.80188%, 78.500366%)" offset="0.75"/><stop stop-opacity="1" stop-color="rgb(22.077942%, 44.009399%, 78.582764%)" offset="0.757812"/><stop stop-opacity="1" stop-color="rgb(22.148132%, 44.218445%, 78.665161%)" offset="0.765625"/><stop stop-opacity="1" stop-color="rgb(22.218323%, 44.425964%, 78.749084%)" offset="0.773438"/><stop stop-opacity="1" stop-color="rgb(22.288513%, 44.63501%, 78.831482%)" offset="0.78125"/><stop stop-opacity="1" stop-color="rgb(22.358704%, 44.842529%, 78.913879%)" offset="0.789062"/><stop stop-opacity="1" stop-color="rgb(22.428894%, 45.051575%, 78.996277%)" offset="0.796875"/><stop stop-opacity="1" stop-color="rgb(22.499084%, 45.26062%, 79.0802%)" offset="0.804687"/><stop stop-opacity="1" stop-color="rgb(22.569275%, 45.46814%, 79.162598%)" offset="0.8125"/><stop stop-opacity="1" stop-color="rgb(22.639465%, 45.677185%, 79.244995%)" offset="0.820313"/><stop stop-opacity="1" stop-color="rgb(22.709656%, 45.884705%, 79.327393%)" offset="0.828125"/><stop stop-opacity="1" stop-color="rgb(22.779846%, 46.09375%, 79.40979%)" offset="0.835938"/><stop stop-opacity="1" stop-color="rgb(22.851562%, 46.30127%, 79.493713%)" offset="0.84375"/><stop stop-opacity="1" stop-color="rgb(22.921753%, 46.510315%, 79.576111%)" offset="0.851563"/><stop stop-opacity="1" stop-color="rgb(22.991943%, 46.71936%, 79.658508%)" offset="0.859375"/><stop stop-opacity="1" stop-color="rgb(23.062134%, 46.92688%, 79.740906%)" offset="0.867188"/><stop stop-opacity="1" stop-color="rgb(23.132324%, 47.135925%, 79.824829%)" offset="0.875"/><stop stop-opacity="1" stop-color="rgb(23.202515%, 47.343445%, 79.907227%)" offset="0.882812"/><stop stop-opacity="1" stop-color="rgb(23.272705%, 47.55249%, 79.989624%)" offset="0.890625"/><stop stop-opacity="1" stop-color="rgb(23.342896%, 47.76001%, 80.072021%)" offset="0.898438"/><stop stop-opacity="1" stop-color="rgb(23.413086%, 47.969055%, 80.154419%)" offset="0.90625"/><stop stop-opacity="1" stop-color="rgb(23.483276%, 48.178101%, 80.238342%)" offset="0.914062"/><stop stop-opacity="1" stop-color="rgb(23.553467%, 48.38562%, 80.32074%)" offset="0.921875"/><stop stop-opacity="1" stop-color="rgb(23.623657%, 48.594666%, 80.403137%)" offset="0.929687"/><stop stop-opacity="1" stop-color="rgb(23.693848%, 48.802185%, 80.485535%)" offset="0.9375"/><stop stop-opacity="1" stop-color="rgb(23.764038%, 49.01123%, 80.569458%)" offset="0.945313"/><stop stop-opacity="1" stop-color="rgb(23.834229%, 49.21875%, 80.651855%)" offset="0.953125"/><stop stop-opacity="1" stop-color="rgb(23.904419%, 49.427795%, 80.734253%)" offset="0.960938"/><stop stop-opacity="1" stop-color="rgb(23.974609%, 49.636841%, 80.81665%)" offset="0.96875"/><stop stop-opacity="1" stop-color="rgb(24.0448%, 49.84436%, 80.899048%)" offset="0.976562"/><stop stop-opacity="1" stop-color="rgb(24.11499%, 50.053406%, 80.982971%)" offset="0.984375"/><stop stop-opacity="1" stop-color="rgb(24.185181%, 50.260925%, 81.065369%)" offset="0.992188"/><stop stop-opacity="1" stop-color="rgb(24.255371%, 50.469971%, 81.147766%)" offset="1"/></linearGradient><mask id="564872c5eb"><g filter="url(#9f519b3d93)"><rect x="-81" width="972" fill="#000000" y="-52.500001" height="630.000008" fill-opacity="0.58"/></g></mask><clipPath id="1fec5d24c9"><path d="M 1.140625 0.339844 L 108.023438 0.339844 L 108.023438 66 L 1.140625 66 Z M 1.140625 0.339844 " clip-rule="nonzero"/></clipPath><clipPath id="43836668bb"><rect x="0" width="109" y="0" height="66"/></clipPath><mask id="c8109cec09"><g filter="url(#9f519b3d93)"><rect x="-81" width="972" fill="#000000" y="-52.500001" height="630.000008" fill-opacity="0.58"/></g></mask><clipPath id="f4cf13d4c4"><path d="M 0.535156 0.628906 L 107.417969 0.628906 L 107.417969 66.351562 L 0.535156 66.351562 Z M 0.535156 0.628906 " clip-rule="nonzero"/></clipPath><clipPath id="7019970083"><rect x="0" width="108" y="0" height="67"/></clipPath><mask id="d6feadf4a6"><g filter="url(#9f519b3d93)"><rect x="-81" width="972" fill="#000000" y="-52.500001" height="630.000008" fill-opacity="0.58"/></g></mask><clipPath id="172fb43128"><path d="M 0.417969 0.457031 L 48.800781 0.457031 L 48.800781 45.332031 L 0.417969 45.332031 Z M 0.417969 0.457031 " clip-rule="nonzero"/></clipPath><clipPath id="7b9dbb9f09"><path d="M 24.542969 0.457031 C 11.21875 0.457031 0.417969 10.5 0.417969 22.894531 C 0.417969 35.285156 11.21875 45.332031 24.542969 45.332031 C 37.863281 45.332031 48.664062 35.285156 48.664062 22.894531 C 48.664062 10.5 37.863281 0.457031 24.542969 0.457031 Z M 24.542969 0.457031 " clip-rule="nonzero"/></clipPath><clipPath id="80aa2357d6"><rect x="0" width="50" y="0" height="46"/></clipPath><mask id="5aa0f9eced"><g filter="url(#9f519b3d93)"><rect x="-81" width="972" fill="#000000" y="-52.500001" height="630.000008" fill-opacity="0.58"/></g></mask><clipPath id="97eb188516"><path d="M 1.074219 0.996094 L 48.71875 0.996094 L 48.71875 48.640625 L 1.074219 48.640625 Z M 1.074219 0.996094 " clip-rule="nonzero"/></clipPath><clipPath id="2cf9658ea8"><path d="M 24.898438 0.996094 C 11.742188 0.996094 1.074219 11.664062 1.074219 24.820312 C 1.074219 37.976562 11.742188 48.640625 24.898438 48.640625 C 38.054688 48.640625 48.71875 37.976562 48.71875 24.820312 C 48.71875 11.664062 38.054688 0.996094 24.898438 0.996094 Z M 24.898438 0.996094 " clip-rule="nonzero"/></clipPath><clipPath id="0e0aa1221a"><rect x="0" width="49" y="0" height="49"/></clipPath><mask id="0c19f41476"><g filter="url(#9f519b3d93)"><rect x="-81" width="972" fill="#000000" y="-52.500001" height="630.000008" fill-opacity="0.58"/></g></mask><clipPath id="77ab66c8c4"><path d="M 0.414062 0.246094 L 48.058594 0.246094 L 48.058594 33 L 0.414062 33 Z M 0.414062 0.246094 " clip-rule="nonzero"/></clipPath><clipPath id="a608716cea"><path d="M 24.234375 0.246094 C 11.078125 0.246094 0.414062 10.910156 0.414062 24.070312 C 0.414062 37.226562 11.078125 47.890625 24.234375 47.890625 C 37.394531 47.890625 48.058594 37.226562 48.058594 24.070312 C 48.058594 10.910156 37.394531 0.246094 24.234375 0.246094 Z M 24.234375 0.246094 " clip-rule="nonzero"/></clipPath><clipPath id="68473437b2"><rect x="0" width="49" y="0" height="33"/></clipPath><mask id="3fec6c4dd3"><g filter="url(#9f519b3d93)"><rect x="-81" width="972" fill="#000000" y="-52.500001" height="630.000008" fill-opacity="0.58"/></g></mask><clipPath id="0e14e90dcb"><path d="M 0.570312 0.539062 L 48.21875 0.539062 L 48.21875 41 L 0.570312 41 Z M 0.570312 0.539062 " clip-rule="nonzero"/></clipPath><clipPath id="6bf4483bd0"><path d="M 24.394531 0.539062 C 11.238281 0.539062 0.570312 11.203125 0.570312 24.359375 C 0.570312 37.515625 11.238281 48.183594 24.394531 48.183594 C 37.550781 48.183594 48.21875 37.515625 48.21875 24.359375 C 48.21875 11.203125 37.550781 0.539062 24.394531 0.539062 Z M 24.394531 0.539062 " clip-rule="nonzero"/></clipPath><clipPath id="869f7f1a58"><rect x="0" width="49" y="0" height="41"/></clipPath><clipPath id="5b033583b1"><path d="M 178.484375 90.933594 L 197.339844 90.933594 L 197.339844 109.785156 L 178.484375 109.785156 Z M 178.484375 90.933594 " clip-rule="nonzero"/></clipPath><clipPath id="f7737c5a77"><path d="M 401.148438 169.097656 L 423.492188 169.097656 L 423.492188 191.441406 L 401.148438 191.441406 Z M 401.148438 169.097656 " clip-rule="nonzero"/></clipPath><clipPath id="9b149a0c2b"><path d="M 276.210938 59.644531 L 289.476562 59.644531 L 289.476562 72.910156 L 276.210938 72.910156 Z M 276.210938 59.644531 " clip-rule="nonzero"/></clipPath><clipPath id="f0efdaf8ee"><path d="M 229.007812 200.09375 L 243.671875 200.09375 L 243.671875 214.757812 L 229.007812 214.757812 Z M 229.007812 200.09375 " clip-rule="nonzero"/></clipPath><clipPath id="e5adc5d730"><path d="M 315.050781 110.378906 L 324.828125 110.378906 L 324.828125 120.152344 L 315.050781 120.152344 Z M 315.050781 110.378906 " clip-rule="nonzero"/></clipPath><clipPath id="9b3fa5d95a"><path d="M 475.632812 69.675781 L 487.609375 69.675781 L 487.609375 81.652344 L 475.632812 81.652344 Z M 475.632812 69.675781 " clip-rule="nonzero"/></clipPath><clipPath id="277c5dafd6"><path d="M 357.261719 286.601562 L 366.246094 286.601562 L 366.246094 295.582031 L 357.261719 295.582031 Z M 357.261719 286.601562 " clip-rule="nonzero"/></clipPath><clipPath id="dcaa51a25f"><path d="M 119.246094 205.164062 L 131.972656 205.164062 L 131.972656 217.890625 L 119.246094 217.890625 Z M 119.246094 205.164062 " clip-rule="nonzero"/></clipPath><clipPath id="b0f3ee58ab"><path d="M 646.96875 93.496094 L 656.699219 93.496094 L 656.699219 103.226562 L 646.96875 103.226562 Z M 646.96875 93.496094 " clip-rule="nonzero"/></clipPath><clipPath id="191fe04ed5"><path d="M 564.851562 192.785156 L 577.574219 192.785156 L 577.574219 205.511719 L 564.851562 205.511719 Z M 564.851562 192.785156 " clip-rule="nonzero"/></clipPath><clipPath id="3fbee4cdd1"><path d="M 724.214844 362.742188 L 736.191406 362.742188 L 736.191406 374.722656 L 724.214844 374.722656 Z M 724.214844 362.742188 " clip-rule="nonzero"/></clipPath><clipPath id="739e63a02b"><path d="M 53.171875 37.671875 L 68.890625 37.671875 L 68.890625 53.390625 L 53.171875 53.390625 Z M 53.171875 37.671875 " clip-rule="nonzero"/></clipPath><clipPath id="35371ff136"><path d="M 80.863281 302.578125 L 87.597656 302.578125 L 87.597656 309.316406 L 80.863281 309.316406 Z M 80.863281 302.578125 " clip-rule="nonzero"/></clipPath><clipPath id="4abf151008"><path d="M 559.621094 384.996094 L 564.863281 384.996094 L 564.863281 390.234375 L 559.621094 390.234375 Z M 559.621094 384.996094 " clip-rule="nonzero"/></clipPath><clipPath id="823050fb4d"><path d="M 608.945312 223.914062 L 615.683594 223.914062 L 615.683594 230.652344 L 608.945312 230.652344 Z M 608.945312 223.914062 " clip-rule="nonzero"/></clipPath><clipPath id="b4802b7d35"><path d="M 493.382812 238.015625 L 500.121094 238.015625 L 500.121094 244.753906 L 493.382812 244.753906 Z M 493.382812 238.015625 " clip-rule="nonzero"/></clipPath><clipPath id="01e41289e1"><path d="M 201.328125 349.394531 L 208.066406 349.394531 L 208.066406 356.132812 L 201.328125 356.132812 Z M 201.328125 349.394531 " clip-rule="nonzero"/></clipPath><clipPath id="a5ac78931f"><path d="M 598.914062 59.644531 L 608.644531 59.644531 L 608.644531 69.375 L 598.914062 69.375 Z M 598.914062 59.644531 " clip-rule="nonzero"/></clipPath><clipPath id="a91583269e"><path d="M 735.808594 221.660156 L 741.050781 221.660156 L 741.050781 226.902344 L 735.808594 226.902344 Z M 735.808594 221.660156 " clip-rule="nonzero"/></clipPath><clipPath id="7560ba6c0f"><path d="M 375.160156 309.40625 L 384.890625 309.40625 L 384.890625 319.136719 L 375.160156 319.136719 Z M 375.160156 309.40625 " clip-rule="nonzero"/></clipPath><clipPath id="6483f11032"><path d="M 697.332031 93.496094 L 709.308594 93.496094 L 709.308594 105.472656 L 697.332031 105.472656 Z M 697.332031 93.496094 " clip-rule="nonzero"/></clipPath></defs><g clip-path="url(#30a998475c)"><g clip-path="url(#f2bd099421)"><path fill="#ffffff" d="M 175.558594 493.460938 L 634.570312 493.460938 L 634.570312 587.167969 L 175.558594 587.167969 Z M 175.558594 493.460938 " fill-opacity="1" fill-rule="nonzero"/></g></g><g clip-path="url(#a7d2888e6f)"><path fill="#ffffff" d="M 395.273438 475.457031 L 417.4375 475.457031 L 417.4375 481.726562 L 395.273438 481.726562 Z M 395.273438 475.457031 " fill-opacity="1" fill-rule="nonzero"/></g><g clip-path="url(#0e5fe86d50)"><g clip-path="url(#08e43ffdf2)"><path fill="#ffffff" d="M 389.078125 397.710938 L 423.625 397.710938 L 423.625 481.78125 L 389.078125 481.78125 Z M 389.078125 397.710938 " fill-opacity="1" fill-rule="nonzero"/></g></g><g clip-path="url(#c76bfd27f9)"><g clip-path="url(#ea38aeed38)"><path fill="#ffffff" d="M 384.992188 457.046875 L 397.640625 457.046875 L 397.640625 493.457031 L 384.992188 493.457031 Z M 384.992188 457.046875 " fill-opacity="1" fill-rule="nonzero"/></g></g><g clip-path="url(#20c94aa967)"><g clip-path="url(#29f6375783)"><path fill="#ffffff" d="M 414.492188 457.046875 L 427.140625 457.046875 L 427.140625 493.457031 L 414.492188 493.457031 Z M 414.492188 457.046875 " fill-opacity="1" fill-rule="nonzero"/></g></g><g clip-path="url(#48014fb74c)"><g clip-path="url(#07478f4950)"><path fill="url(#0bc94e82cd)" d="M 399.191406 448.28125 L 399.191406 462.765625 L 413.507812 462.765625 L 413.507812 448.28125 Z M 399.191406 448.28125 " fill-rule="nonzero"/></g></g><g mask="url(#564872c5eb)"><g transform="matrix(1, 0, 0, 1, 430, 458)"><g clip-path="url(#43836668bb)"><g clip-path="url(#1fec5d24c9)"><path fill="#ffffff" d="M 108.023438 49.628906 C 108.023438 58.707031 100.664062 66.058594 91.582031 66.058594 L 25.8125 66.058594 C 12.195312 66.058594 1.140625 55.027344 1.140625 41.421875 C 1.140625 27.796875 12.195312 16.769531 25.8125 16.769531 C 27.234375 16.769531 28.640625 16.890625 30.007812 17.125 C 35.640625 7.105469 46.378906 0.335938 58.695312 0.335938 C 76.863281 0.335938 91.582031 15.042969 91.582031 33.199219 C 100.664062 33.199219 108.023438 40.550781 108.023438 49.628906 " fill-opacity="1" fill-rule="nonzero"/></g></g></g></g><g mask="url(#c8109cec09)"><g transform="matrix(1, 0, 0, 1, 199, 450)"><g clip-path="url(#7019970083)"><g clip-path="url(#f4cf13d4c4)"><path fill="#ffffff" d="M 107.417969 49.917969 C 107.417969 58.996094 100.058594 66.351562 90.976562 66.351562 L 25.210938 66.351562 C 11.59375 66.351562 0.535156 55.320312 0.535156 41.714844 C 0.535156 28.089844 11.59375 17.058594 25.210938 17.058594 C 26.628906 17.058594 28.035156 17.183594 29.402344 17.414062 C 35.039062 7.398438 45.773438 0.628906 58.09375 0.628906 C 76.257812 0.628906 90.976562 15.335938 90.976562 33.492188 C 100.058594 33.492188 107.417969 40.84375 107.417969 49.917969 " fill-opacity="1" fill-rule="nonzero"/></g></g></g></g><g mask="url(#d6feadf4a6)"><g transform="matrix(1, 0, 0, 1, 267, 475)"><g clip-path="url(#80aa2357d6)"><g clip-path="url(#172fb43128)"><g clip-path="url(#7b9dbb9f09)"><path fill="#ffffff" d="M 0.417969 0.457031 L 48.625 0.457031 L 48.625 45.332031 L 0.417969 45.332031 Z M 0.417969 0.457031 " fill-opacity="1" fill-rule="nonzero"/></g></g></g></g></g><g mask="url(#5aa0f9eced)"><g transform="matrix(1, 0, 0, 1, 430, 474)"><g clip-path="url(#0e0aa1221a)"><g clip-path="url(#97eb188516)"><g clip-path="url(#2cf9658ea8)"><path fill="#ffffff" d="M 1.074219 0.996094 L 48.71875 0.996094 L 48.71875 48.640625 L 1.074219 48.640625 Z M 1.074219 0.996094 " fill-opacity="1" fill-rule="nonzero"/></g></g></g></g></g><g mask="url(#0c19f41476)"><g transform="matrix(1, 0, 0, 1, 559, 491)"><g clip-path="url(#68473437b2)"><g clip-path="url(#77ab66c8c4)"><g clip-path="url(#a608716cea)"><path fill="#ffffff" d="M 0.414062 0.246094 L 48.058594 0.246094 L 48.058594 47.890625 L 0.414062 47.890625 Z M 0.414062 0.246094 " fill-opacity="1" fill-rule="nonzero"/></g></g></g></g></g><g mask="url(#3fec6c4dd3)"><g transform="matrix(1, 0, 0, 1, 327, 483)"><g clip-path="url(#869f7f1a58)"><g clip-path="url(#0e14e90dcb)"><g clip-path="url(#6bf4483bd0)"><path fill="#ffffff" d="M 0.570312 0.539062 L 48.21875 0.539062 L 48.21875 48.183594 L 0.570312 48.183594 Z M 0.570312 0.539062 " fill-opacity="1" fill-rule="nonzero"/></g></g></g></g></g><g clip-path="url(#5b033583b1)"><path fill="#ffffff" d="M 197.53125 100.457031 C 190.390625 101.769531 189.324219 102.835938 188.007812 109.980469 C 186.695312 102.835938 185.628906 101.769531 178.484375 100.457031 C 185.628906 99.140625 186.695312 98.074219 188.007812 90.933594 C 189.324219 98.074219 190.390625 99.140625 197.53125 100.457031 Z M 197.53125 100.457031 " fill-opacity="1" fill-rule="nonzero"/></g><g clip-path="url(#f7737c5a77)"><path fill="#ffffff" d="M 423.5 180.273438 C 415.117188 181.816406 413.867188 183.066406 412.324219 191.449219 C 410.78125 183.066406 409.53125 181.816406 401.148438 180.273438 C 409.53125 178.730469 410.78125 177.480469 412.324219 169.097656 C 413.867188 177.480469 415.117188 178.730469 423.5 180.273438 Z M 423.5 180.273438 " fill-opacity="1" fill-rule="nonzero"/></g><g clip-path="url(#9b149a0c2b)"><path fill="#ffffff" d="M 289.71875 66.398438 C 284.652344 67.328125 283.898438 68.085938 282.964844 73.148438 C 282.03125 68.085938 281.277344 67.328125 276.210938 66.398438 C 281.277344 65.464844 282.03125 64.707031 282.964844 59.644531 C 283.898438 64.707031 284.652344 65.464844 289.71875 66.398438 Z M 289.71875 66.398438 " fill-opacity="1" fill-rule="nonzero"/></g><g clip-path="url(#f0efdaf8ee)"><path fill="#ffffff" d="M 243.507812 207.34375 C 238.070312 208.34375 237.257812 209.15625 236.257812 214.59375 C 235.257812 209.15625 234.445312 208.34375 229.007812 207.34375 C 234.445312 206.34375 235.257812 205.53125 236.257812 200.09375 C 237.257812 205.53125 238.070312 206.34375 243.507812 207.34375 Z M 243.507812 207.34375 " fill-opacity="1" fill-rule="nonzero"/></g><g clip-path="url(#e5adc5d730)"><path fill="#ffffff" d="M 324.871094 115.285156 C 321.1875 115.964844 320.640625 116.515625 319.960938 120.195312 C 319.285156 116.515625 318.734375 115.964844 315.050781 115.285156 C 318.734375 114.609375 319.285156 114.058594 319.960938 110.378906 C 320.640625 114.058594 321.1875 114.609375 324.871094 115.285156 Z M 324.871094 115.285156 " fill-opacity="1" fill-rule="nonzero"/></g><g clip-path="url(#9b3fa5d95a)"><path fill="#ffffff" d="M 487.363281 75.542969 C 482.964844 76.351562 482.308594 77.007812 481.496094 81.40625 C 480.6875 77.007812 480.03125 76.351562 475.632812 75.542969 C 480.03125 74.730469 480.6875 74.074219 481.496094 69.675781 C 482.308594 74.074219 482.964844 74.730469 487.363281 75.542969 Z M 487.363281 75.542969 " fill-opacity="1" fill-rule="nonzero"/></g><g clip-path="url(#277c5dafd6)"><path fill="#ffffff" d="M 366.539062 291.238281 C 363.058594 291.878906 362.539062 292.398438 361.898438 295.875 C 361.261719 292.398438 360.742188 291.878906 357.261719 291.238281 C 360.742188 290.597656 361.261719 290.078125 361.898438 286.601562 C 362.539062 290.078125 363.058594 290.597656 366.539062 291.238281 Z M 366.539062 291.238281 " fill-opacity="1" fill-rule="nonzero"/></g><g clip-path="url(#dcaa51a25f)"><path fill="#ffffff" d="M 132.03125 211.554688 C 127.234375 212.4375 126.519531 213.152344 125.636719 217.945312 C 124.753906 213.152344 124.039062 212.4375 119.246094 211.554688 C 124.039062 210.671875 124.753906 209.957031 125.636719 205.164062 C 126.519531 209.957031 127.234375 210.671875 132.03125 211.554688 Z M 132.03125 211.554688 " fill-opacity="1" fill-rule="nonzero"/></g><g clip-path="url(#b0f3ee58ab)"><path fill="#ffffff" d="M 656.992188 98.507812 C 653.234375 99.199219 652.671875 99.761719 651.980469 103.519531 C 651.289062 99.761719 650.726562 99.199219 646.96875 98.507812 C 650.726562 97.816406 651.289062 97.253906 651.980469 93.496094 C 652.671875 97.253906 653.234375 97.816406 656.992188 98.507812 Z M 656.992188 98.507812 " fill-opacity="1" fill-rule="nonzero"/></g><g clip-path="url(#191fe04ed5)"><path fill="#ffffff" d="M 577.222656 198.972656 C 572.582031 199.824219 571.890625 200.519531 571.035156 205.160156 C 570.183594 200.519531 569.488281 199.824219 564.851562 198.972656 C 569.488281 198.117188 570.183594 197.425781 571.035156 192.785156 C 571.890625 197.425781 572.582031 198.117188 577.222656 198.972656 Z M 577.222656 198.972656 " fill-opacity="1" fill-rule="nonzero"/></g><g clip-path="url(#3fbee4cdd1)"><path fill="#ffffff" d="M 736.015625 368.644531 C 731.589844 369.460938 730.929688 370.121094 730.117188 374.542969 C 729.300781 370.121094 728.640625 369.460938 724.214844 368.644531 C 728.640625 367.828125 729.300781 367.167969 730.117188 362.742188 C 730.929688 367.167969 731.589844 367.828125 736.015625 368.644531 Z M 736.015625 368.644531 " fill-opacity="1" fill-rule="nonzero"/></g><g clip-path="url(#739e63a02b)"><path fill="#ffffff" d="M 68.703125 45.4375 C 62.878906 46.507812 62.007812 47.378906 60.9375 53.203125 C 59.863281 47.378906 58.996094 46.507812 53.171875 45.4375 C 58.996094 44.363281 59.863281 43.496094 60.9375 37.671875 C 62.007812 43.496094 62.878906 44.363281 68.703125 45.4375 Z M 68.703125 45.4375 " fill-opacity="1" fill-rule="nonzero"/></g><g clip-path="url(#35371ff136)"><path fill="#ffffff" d="M 87.679688 305.988281 C 85.125 306.457031 84.742188 306.839844 84.269531 309.398438 C 83.800781 306.839844 83.417969 306.457031 80.863281 305.988281 C 83.417969 305.515625 83.800781 305.136719 84.269531 302.578125 C 84.742188 305.136719 85.125 305.515625 87.679688 305.988281 Z M 87.679688 305.988281 " fill-opacity="1" fill-rule="nonzero"/></g><g clip-path="url(#4abf151008)"><path fill="#ffffff" d="M 564.847656 387.609375 C 562.890625 387.96875 562.597656 388.261719 562.234375 390.222656 C 561.875 388.261719 561.582031 387.96875 559.621094 387.609375 C 561.582031 387.25 561.875 386.957031 562.234375 384.996094 C 562.597656 386.957031 562.890625 387.25 564.847656 387.609375 Z M 564.847656 387.609375 " fill-opacity="1" fill-rule="nonzero"/></g><g clip-path="url(#823050fb4d)"><path fill="#ffffff" d="M 615.648438 227.265625 C 613.132812 227.726562 612.757812 228.101562 612.296875 230.617188 C 611.832031 228.101562 611.457031 227.726562 608.945312 227.265625 C 611.457031 226.800781 611.832031 226.425781 612.296875 223.914062 C 612.757812 226.425781 613.132812 226.800781 615.648438 227.265625 Z M 615.648438 227.265625 " fill-opacity="1" fill-rule="nonzero"/></g><g clip-path="url(#b4802b7d35)"><path fill="#ffffff" d="M 500.085938 241.367188 C 497.574219 241.828125 497.199219 242.203125 496.734375 244.714844 C 496.273438 242.203125 495.898438 241.828125 493.382812 241.367188 C 495.898438 240.902344 496.273438 240.527344 496.734375 238.015625 C 497.199219 240.527344 497.574219 240.902344 500.085938 241.367188 Z M 500.085938 241.367188 " fill-opacity="1" fill-rule="nonzero"/></g><g clip-path="url(#01e41289e1)"><path fill="#ffffff" d="M 208.03125 352.746094 C 205.519531 353.210938 205.144531 353.585938 204.679688 356.097656 C 204.21875 353.585938 203.84375 353.210938 201.328125 352.746094 C 203.84375 352.285156 204.21875 351.910156 204.679688 349.394531 C 205.144531 351.910156 205.519531 352.285156 208.03125 352.746094 Z M 208.03125 352.746094 " fill-opacity="1" fill-rule="nonzero"/></g><g clip-path="url(#a5ac78931f)"><path fill="#ffffff" d="M 608.9375 64.65625 C 605.179688 65.347656 604.617188 65.910156 603.925781 69.667969 C 603.234375 65.910156 602.671875 65.347656 598.914062 64.65625 C 602.671875 63.964844 603.234375 63.402344 603.925781 59.644531 C 604.617188 63.402344 605.179688 63.964844 608.9375 64.65625 Z M 608.9375 64.65625 " fill-opacity="1" fill-rule="nonzero"/></g><g clip-path="url(#a91583269e)"><path fill="#ffffff" d="M 741.035156 224.273438 C 739.078125 224.636719 738.785156 224.929688 738.421875 226.890625 C 738.0625 224.929688 737.769531 224.636719 735.808594 224.273438 C 737.769531 223.914062 738.0625 223.621094 738.421875 221.660156 C 738.785156 223.621094 739.078125 223.914062 741.035156 224.273438 Z M 741.035156 224.273438 " fill-opacity="1" fill-rule="nonzero"/></g><g clip-path="url(#7560ba6c0f)"><path fill="#ffffff" d="M 385.019531 314.335938 C 381.320312 315.015625 380.769531 315.566406 380.089844 319.265625 C 379.410156 315.566406 378.855469 315.015625 375.160156 314.335938 C 378.855469 313.652344 379.410156 313.101562 380.089844 309.40625 C 380.769531 313.101562 381.320312 313.652344 385.019531 314.335938 Z M 385.019531 314.335938 " fill-opacity="1" fill-rule="nonzero"/></g><g clip-path="url(#6483f11032)"><path fill="#ffffff" d="M 709.0625 99.359375 C 704.664062 100.171875 704.007812 100.828125 703.195312 105.226562 C 702.386719 100.828125 701.730469 100.171875 697.332031 99.359375 C 701.730469 98.550781 702.386719 97.894531 703.195312 93.496094 C 704.007812 97.894531 704.664062 98.550781 709.0625 99.359375 Z M 709.0625 99.359375 " fill-opacity="1" fill-rule="nonzero"/></g></svg>