<svg id="eWIMbTqB0lQ1" xmlns="http://www.w3.org/2000/svg" xmlns:xlink="http://www.w3.org/1999/xlink" viewBox="0 0 1080 1080" shape-rendering="geometricPrecision" text-rendering="geometricPrecision">
<style><![CDATA[
#eWIMbTqB0lQ2_to {animation: eWIMbTqB0lQ2_to__to 3000ms linear infinite normal forwards}@keyframes eWIMbTqB0lQ2_to__to { 0% {transform: translate(763.243702px,268.755566px);animation-timing-function: cubic-bezier(0.42,0,0.58,1)} 40% {transform: translate(772.624199px,258.69124px);animation-timing-function: cubic-bezier(0.42,0,0.58,1)} 100% {transform: translate(763.241238px,268.760245px)}} #eWIMbTqB0lQ7_to {animation: eWIMbTqB0lQ7_to__to 3000ms linear infinite normal forwards}@keyframes eWIMbTqB0lQ7_to__to { 0% {transform: translate(579.43462px,315.552513px);animation-timing-function: cubic-bezier(0.42,0,0.58,1)} 40% {transform: translate(569.233461px,326.948161px);animation-timing-function: cubic-bezier(0.42,0,0.58,1)} 100% {transform: translate(579.431655px,315.548759px)}} #eWIMbTqB0lQ12_to {animation: eWIMbTqB0lQ12_to__to 3000ms linear infinite normal forwards}@keyframes eWIMbTqB0lQ12_to__to { 0% {transform: translate(790.932601px,395.667453px);animation-timing-function: cubic-bezier(0.42,0,0.58,1)} 40% {transform: translate(796.048204px,390.227753px);animation-timing-function: cubic-bezier(0.42,0,0.58,1)} 100% {transform: translate(790.931655px,395.668759px)}} #eWIMbTqB0lQ17_to {animation: eWIMbTqB0lQ17_to__to 3000ms linear infinite normal forwards}@keyframes eWIMbTqB0lQ17_to__to { 0% {transform: translate(703.32471px,332.9769px);animation-timing-function: cubic-bezier(0.42,0,0.58,1)} 53.333333% {transform: translate(712.705207px,321.685225px);animation-timing-function: cubic-bezier(0.42,0,0.58,1)} 100% {transform: translate(703.322572px,332.97568px)}} #eWIMbTqB0lQ18_to {animation: eWIMbTqB0lQ18_to__to 3000ms linear infinite normal forwards}@keyframes eWIMbTqB0lQ18_to__to { 0% {transform: translate(552.500634px,344.644078px);animation-timing-function: cubic-bezier(0.42,0,0.58,1)} 53.333333% {transform: translate(542.299475px,355.580887px);animation-timing-function: cubic-bezier(0.42,0,0.58,1)} 100% {transform: translate(552.500166px,344.647677px)}} #eWIMbTqB0lQ19_to {animation: eWIMbTqB0lQ19_to__to 3000ms linear infinite normal forwards}@keyframes eWIMbTqB0lQ19_to__to { 0% {transform: translate(764.750738px,423.825902px);animation-timing-function: cubic-bezier(0.42,0,0.58,1)} 53.333333% {transform: translate(769.475082px,418.335448px);animation-timing-function: cubic-bezier(0.42,0,0.58,1)} 100% {transform: translate(764.750737px,423.698217px)}} #eWIMbTqB0lQ20_ts {animation: eWIMbTqB0lQ20_ts__ts 3000ms linear infinite normal forwards}@keyframes eWIMbTqB0lQ20_ts__ts { 0% {transform: translate(565.320201px,239.520855px) scale(0.12,0.10073)} 33.333333% {transform: translate(565.320201px,239.520855px) scale(0.12,0.10073)} 66.666667% {transform: translate(565.320201px,239.520855px) scale(0.06,0.05)} 100% {transform: translate(565.320201px,239.520855px) scale(0.12,0.1)}} #eWIMbTqB0lQ21_ts {animation: eWIMbTqB0lQ21_ts__ts 3000ms linear infinite normal forwards}@keyframes eWIMbTqB0lQ21_ts__ts { 0% {transform: translate(950.155786px,585.218066px) scale(0.12,0.10073)} 26.666667% {transform: translate(950.155786px,585.218066px) scale(0.12,0.10073)} 60% {transform: translate(950.155786px,585.218066px) scale(0.06,0.05)} 93.333333% {transform: translate(950.155786px,585.218066px) scale(0.12,0.1)} 100% {transform: translate(950.155786px,585.218066px) scale(0.12,0.1)}} #eWIMbTqB0lQ22_ts {animation: eWIMbTqB0lQ22_ts__ts 3000ms linear infinite normal forwards}@keyframes eWIMbTqB0lQ22_ts__ts { 0% {transform: translate(407.198095px,159.405348px) scale(0.12,0.10073)} 33.333333% {transform: translate(407.198095px,159.405348px) scale(0.06,0.05)} 66.666667% {transform: translate(407.198095px,159.405348px) scale(0.12,0.1)} 100% {transform: translate(407.198095px,159.405348px) scale(0.12,0.1)}} #eWIMbTqB0lQ23_ts {animation: eWIMbTqB0lQ23_ts__ts 3000ms linear infinite normal forwards}@keyframes eWIMbTqB0lQ23_ts__ts { 0% {transform: translate(903.409197px,340.474274px) scale(0.12,0.10073)} 33.333333% {transform: translate(903.409197px,340.474274px) scale(0.06,0.05)} 66.666667% {transform: translate(903.409197px,340.474274px) scale(0.12,0.1)} 100% {transform: translate(903.409197px,340.474274px) scale(0.12,0.1)}} #eWIMbTqB0lQ24_ts {animation: eWIMbTqB0lQ24_ts__ts 3000ms linear infinite normal forwards}@keyframes eWIMbTqB0lQ24_ts__ts { 0% {transform: translate(965.155786px,119.86808px) scale(0.14,0.10073)} 13.333333% {transform: translate(965.155786px,119.86808px) scale(0.14,0.10073)} 46.666667% {transform: translate(965.155786px,119.86808px) scale(0.07,0.05)} 80% {transform: translate(965.155786px,119.86808px) scale(0.14,0.1)} 100% {transform: translate(965.155786px,119.86808px) scale(0.14,0.1)}} #eWIMbTqB0lQ25_ts {animation: eWIMbTqB0lQ25_ts__ts 3000ms linear infinite normal forwards}@keyframes eWIMbTqB0lQ25_ts__ts { 0% {transform: translate(696.452464px,693.711405px) scale(0.12,0.10073)} 13.333333% {transform: translate(696.452464px,693.711405px) scale(0.12,0.10073)} 46.666667% {transform: translate(696.452464px,693.711405px) scale(0.06,0.05)} 80% {transform: translate(696.452464px,693.711405px) scale(0.12,0.1)} 100% {transform: translate(696.452464px,693.711405px) scale(0.12,0.1)}}
]]></style>
<g id="eWIMbTqB0lQ2_to" transform="translate(763.243702,268.755566)"><g transform="rotate(42.652552) scale(0.279532,0.27529) translate(-1173.318238,-481.401764)"><path d="M1169.70097,713.42633c-59.20798-.4723-106.22419-123.87802-105.01364-275.6344s50.18945-274.39636,109.39743-273.92406s106.22419,123.87802,105.01364,275.6344-50.18945,274.39636-109.39743,273.92406Zm4.3838-139.462c22.09139,0,40-17.90861,40-40s-17.90861-40-40-40-40,17.90861-40,40s17.90861,40,40,40Z" fill="#fff" stroke-width="0"/><path d="M1027.86115,671.35097c0-70.93531,21.29794-128.43974,47.57028-128.43974s47.57028,57.50443,47.57028,128.43974-21.29794,128.43974-47.57028,128.43974-47.57028-57.50443-47.57028-128.43974Z" fill="#fff" stroke-width="0"/><ellipse rx="47.570275" ry="128.439742" transform="translate(1271.20504 671.350974)" fill="#fff" stroke-width="0"/><rect width="195.773618" height="98.46934" rx="0" ry="0" transform="translate(1075.431422 614.101819)" fill="#fff" stroke-width="0"/></g></g><g id="eWIMbTqB0lQ7_to" transform="translate(579.43462,315.552513)"><g transform="rotate(42.652552) scale(0.119005,0.1145) translate(-1173.318238,-481.401764)"><path d="M1027.86115,671.35097c0-70.93531,21.29794-128.43974,47.57028-128.43974s47.57028,57.50443,47.57028,128.43974-21.29794,128.43974-47.57028,128.43974-47.57028-57.50443-47.57028-128.43974Z" fill="#ef5f20" stroke-width="0"/><ellipse rx="47.570275" ry="128.439742" transform="translate(1271.20504 671.350974)" fill="#ef5f20" stroke-width="0"/><rect width="195.773618" height="98.46934" rx="0" ry="0" transform="translate(1075.431422 614.101819)" fill="#ef5f20" stroke-width="0"/><path d="M1169.70097,713.42633c-59.20798-.4723-106.22419-123.87802-105.01364-275.6344s50.18945-274.39636,109.39743-273.92406s106.22419,123.87802,105.01364,275.6344-50.18945,274.39636-109.39743,273.92406Zm4.3838-139.462c22.09139,0,40-17.90861,40-40s-17.90861-40-40-40-40,17.90861-40,40s17.90861,40,40,40Z" fill="#fff" stroke-width="0"/></g></g><g id="eWIMbTqB0lQ12_to" transform="translate(790.932601,395.667453)"><g transform="rotate(42.652552) scale(0.119005,0.1145) translate(-1173.318238,-481.401764)"><path d="M1027.86115,671.35097c0-70.93531,21.29794-128.43974,47.57028-128.43974s47.57028,57.50443,47.57028,128.43974-21.29794,128.43974-47.57028,128.43974-47.57028-57.50443-47.57028-128.43974Z" fill="#fff" stroke-width="0"/><ellipse rx="47.570275" ry="128.439742" transform="translate(1271.20504 671.350974)" fill="#fff" stroke-width="0"/><rect width="195.773618" height="98.46934" rx="0" ry="0" transform="translate(1075.431422 614.101819)" fill="#fff" stroke-width="0"/><path d="M1169.70097,713.42633c-59.20798-.4723-106.22419-123.87802-105.01364-275.6344s50.18945-274.39636,109.39743-273.92406s106.22419,123.87802,105.01364,275.6344-50.18945,274.39636-109.39743,273.92406Zm4.3838-139.462c22.09139,0,40-17.90861,40-40s-17.90861-40-40-40-40,17.90861-40,40s17.90861,40,40,40Z" fill="#ef5f20" stroke-width="0"/></g></g><g id="eWIMbTqB0lQ17_to" transform="translate(703.32471,332.9769)"><polygon points="0,-130.00985 0,-130.009849 76.417872,105.180178 -76.417872,105.180178 0,-130.009848 0,-130.00985" transform="rotate(-138.395439) scale(0.12501,3.068418) translate(-9.039018,-103.762415)" fill="#fff" stroke-width="0"/></g><g id="eWIMbTqB0lQ18_to" transform="translate(552.500634,344.644078)"><polygon points="0,-130.00985 0,-130.009849 76.417872,105.180178 -76.417872,105.180178 0,-130.009848 0,-130.00985" transform="rotate(-138.395439) scale(0.058669,3.068418) translate(-9.039018,-103.762415)" fill="#ef5f20" stroke-width="0"/></g><g id="eWIMbTqB0lQ19_to" transform="translate(764.750738,423.825902)"><polygon points="0,-130.00985 0,-130.009849 76.417872,105.180178 -76.417872,105.180178 0,-130.009848 0,-130.00985" transform="rotate(-138.395439) scale(0.058669,3.068418) translate(-9.039018,-103.762415)" fill="#ef5f20" stroke-width="0"/></g><g id="eWIMbTqB0lQ20_ts" transform="translate(565.320201,239.520855) scale(0.12,0.10073)"><path d="M-107.377224,-232.537847c0,0,6.917298,89.75266,28.320615,115.217785s96.840007,33.695151,96.840007,33.695151-75.436689,8.230026-96.840007,33.69515-28.320615,115.217785-28.320615,115.217785-6.917299-89.75266-28.320616-115.217785-96.840007-33.69515-96.840007-33.69515s75.436689-8.230027,96.840007-33.695151s28.320616-115.217785,28.320616-115.217785Z" transform="translate(107.377226,83.624818)" fill="#fff" stroke-width="0"/></g><g id="eWIMbTqB0lQ21_ts" transform="translate(950.155786,585.218066) scale(0.12,0.10073)"><path d="M-107.377224,-232.537847c0,0,6.917298,89.75266,28.320615,115.217785s96.840007,33.695151,96.840007,33.695151-75.436689,8.230026-96.840007,33.69515-28.320615,115.217785-28.320615,115.217785-6.917299-89.75266-28.320616-115.217785-96.840007-33.69515-96.840007-33.69515s75.436689-8.230027,96.840007-33.695151s28.320616-115.217785,28.320616-115.217785Z" transform="translate(107.377226,83.624918)" fill="#fff" stroke-width="0"/></g><g id="eWIMbTqB0lQ22_ts" transform="translate(407.198095,159.405348) scale(0.12,0.10073)"><path d="M-107.377224,-232.537847c0,0,6.917298,89.75266,28.320615,115.217785s96.840007,33.695151,96.840007,33.695151-75.436689,8.230026-96.840007,33.69515-28.320615,115.217785-28.320615,115.217785-6.917299-89.75266-28.320616-115.217785-96.840007-33.69515-96.840007-33.69515s75.436689-8.230027,96.840007-33.695151s28.320616-115.217785,28.320616-115.217785Z" transform="translate(107.377225,83.624908)" fill="#fff" stroke-width="0"/></g><g id="eWIMbTqB0lQ23_ts" transform="translate(903.409197,340.474274) scale(0.12,0.10073)"><path d="M-149.097431,-232.537847c0,0,4.611532,59.835107,18.88041,76.811857s64.560004,22.463434,64.560004,22.463434-50.291126,5.486684-64.560004,22.463433-18.88041,76.811857-18.88041,76.811857-4.611533-59.835107-18.880411-76.811857-64.560005-22.463433-64.560005-22.463433s50.291126-5.486685,64.560005-22.463434s18.880411-76.811857,18.880411-76.811857Z" transform="translate(149.097332,133.262533)" fill="#fff" stroke-width="0"/></g><g id="eWIMbTqB0lQ24_ts" transform="translate(965.155786,119.86808) scale(0.14,0.10073)"><path d="M-95.742268,-232.537847c0,0,7.560331,112.997575,30.953305,145.057876s105.842273,42.421811,105.842273,42.421811-82.449298,10.361509-105.842273,42.421809-30.953305,145.057877-30.953305,145.057877-7.560332-112.997575-30.953306-145.057877-105.842273-42.421809-105.842273-42.421809s82.449298-10.36151,105.842273-42.421811s30.953306-145.057876,30.953306-145.057876Z" transform="translate(95.742271,45.058161)" fill="#fff" stroke-width="0"/></g><g id="eWIMbTqB0lQ25_ts" transform="translate(696.452464,693.711405) scale(0.12,0.10073)"><path d="M-95.742268,-232.537847c0,0,7.560331,112.997575,30.953305,145.057876s105.842273,42.421811,105.842273,42.421811-82.449298,10.361509-105.842273,42.421809-30.953305,145.057877-30.953305,145.057877-7.560332-112.997575-30.953306-145.057877-105.842273-42.421809-105.842273-42.421809s82.449298-10.36151,105.842273-42.421811s30.953306-145.057876,30.953306-145.057876Z" transform="translate(95.742272,45.058304)" fill="#fff" stroke-width="0"/></g></svg>
