<svg xmlns="http://www.w3.org/2000/svg" xmlns:xlink="http://www.w3.org/1999/xlink" width="624" zoomAndPan="magnify" viewBox="0 0 468 296.250004" height="395" preserveAspectRatio="xMidYMid meet" version="1.0"><defs><clipPath id="bf505eaf31"><path d="M 0.589844 59.597656 L 37 59.597656 L 37 96 L 0.589844 96 Z M 0.589844 59.597656 " clip-rule="nonzero"/></clipPath><clipPath id="b196782f7c"><path d="M 424.710938 208.484375 L 467.355469 208.484375 L 467.355469 251.125 L 424.710938 251.125 Z M 424.710938 208.484375 " clip-rule="nonzero"/></clipPath><clipPath id="b8c94bbc9a"><path d="M 186.734375 0 L 212.171875 0 L 212.171875 25.4375 L 186.734375 25.4375 Z M 186.734375 0 " clip-rule="nonzero"/></clipPath><clipPath id="0b3d4547a8"><path d="M 96.824219 267.527344 L 124.503906 267.527344 L 124.503906 295.207031 L 96.824219 295.207031 Z M 96.824219 267.527344 " clip-rule="nonzero"/></clipPath><clipPath id="bec140cfa1"><path d="M 260.71875 96.636719 L 279.421875 96.636719 L 279.421875 115.339844 L 260.71875 115.339844 Z M 260.71875 96.636719 " clip-rule="nonzero"/></clipPath></defs><g clip-path="url(#bf505eaf31)"><path fill="#ffffff" d="M 36.871094 77.738281 C 23.265625 80.242188 21.234375 82.269531 18.730469 95.875 C 16.226562 82.269531 14.195312 80.242188 0.589844 77.738281 C 14.195312 75.230469 16.226562 73.203125 18.730469 59.597656 C 21.234375 73.203125 23.265625 75.230469 36.871094 77.738281 Z M 36.871094 77.738281 " fill-opacity="1" fill-rule="nonzero"/></g><g clip-path="url(#b196782f7c)"><path fill="#ffffff" d="M 467.292969 229.773438 C 451.324219 232.714844 448.941406 235.097656 446.003906 251.0625 C 443.0625 235.097656 440.679688 232.714844 424.710938 229.773438 C 440.679688 226.835938 443.0625 224.449219 446.003906 208.484375 C 448.941406 224.449219 451.324219 226.835938 467.292969 229.773438 Z M 467.292969 229.773438 " fill-opacity="1" fill-rule="nonzero"/></g><g clip-path="url(#b8c94bbc9a)"><path fill="#ffffff" d="M 212.472656 12.867188 C 202.820312 14.644531 201.382812 16.085938 199.605469 25.738281 C 197.828125 16.085938 196.386719 14.644531 186.734375 12.867188 C 196.386719 11.09375 197.828125 9.652344 199.605469 0 C 201.382812 9.652344 202.820312 11.09375 212.472656 12.867188 Z M 212.472656 12.867188 " fill-opacity="1" fill-rule="nonzero"/></g><g clip-path="url(#0b3d4547a8)"><path fill="#ffffff" d="M 124.445312 281.335938 C 114.085938 283.242188 112.539062 284.789062 110.632812 295.144531 C 108.726562 284.789062 107.179688 283.242188 96.824219 281.335938 C 107.179688 279.429688 108.726562 277.882812 110.632812 267.527344 C 112.539062 277.882812 114.085938 279.429688 124.445312 281.335938 Z M 124.445312 281.335938 " fill-opacity="1" fill-rule="nonzero"/></g><g clip-path="url(#bec140cfa1)"><path fill="#ffffff" d="M 279.417969 105.988281 C 272.40625 107.277344 271.359375 108.324219 270.066406 115.335938 C 268.777344 108.324219 267.730469 107.277344 260.71875 105.988281 C 267.730469 104.695312 268.777344 103.648438 270.066406 96.636719 C 271.359375 103.648438 272.40625 104.695312 279.417969 105.988281 Z M 279.417969 105.988281 " fill-opacity="1" fill-rule="nonzero"/></g></svg>