<svg id="eEHtO1PeIjd1" xmlns="http://www.w3.org/2000/svg" xmlns:xlink="http://www.w3.org/1999/xlink" viewBox="0 0 1080 1080" shape-rendering="geometricPrecision" text-rendering="geometricPrecision"><g transform="matrix(.205589 0.189397-.186523 0.202469 611.814794-50.93657)"><path d="M1169.70097,713.42633c-59.20798-.4723-106.22419-123.87802-105.01364-275.6344s50.18945-274.39636,109.39743-273.92406s106.22419,123.87802,105.01364,275.6344-50.18945,274.39636-109.39743,273.92406Zm4.3838-139.462c22.09139,0,40-17.90861,40-40s-17.90861-40-40-40-40,17.90861-40,40s17.90861,40,40,40Z" fill="#fff" stroke-width="0"/><path d="M1027.86115,671.35097c0-70.93531,21.29794-128.43974,47.57028-128.43974s47.57028,57.50443,47.57028,128.43974-21.29794,128.43974-47.57028,128.43974-47.57028-57.50443-47.57028-128.43974Z" fill="#fff" stroke-width="0"/><ellipse rx="47.570275" ry="128.439742" transform="translate(1271.20504 671.350974)" fill="#fff" stroke-width="0"/><rect width="195.773618" height="98.46934" rx="0" ry="0" transform="translate(1075.431422 614.101819)" fill="#fff" stroke-width="0"/></g><g transform="matrix(.087525 0.080632-.07758 0.084212 514.086514 180.405787)"><path d="M1027.86115,671.35097c0-70.93531,21.29794-128.43974,47.57028-128.43974s47.57028,57.50443,47.57028,128.43974-21.29794,128.43974-47.57028,128.43974-47.57028-57.50443-47.57028-128.43974Z" fill="#ef5f20" stroke-width="0"/><ellipse rx="47.570275" ry="128.439742" transform="translate(1271.20504 671.350974)" fill="#ef5f20" stroke-width="0"/><rect width="195.773618" height="98.46934" rx="0" ry="0" transform="translate(1075.431422 614.101819)" fill="#ef5f20" stroke-width="0"/><path d="M1169.70097,713.42633c-59.20798-.4723-106.22419-123.87802-105.01364-275.6344s50.18945-274.39636,109.39743-273.92406s106.22419,123.87802,105.01364,275.6344-50.18945,274.39636-109.39743,273.92406Zm4.3838-139.462c22.09139,0,40-17.90861,40-40s-17.90861-40-40-40-40,17.90861-40,40s17.90861,40,40,40Z" fill="#fff" stroke-width="0"/></g><g transform="matrix(.087525 0.080632-.07758 0.084212 725.584495 260.520727)"><path d="M1027.86115,671.35097c0-70.93531,21.29794-128.43974,47.57028-128.43974s47.57028,57.50443,47.57028,128.43974-21.29794,128.43974-47.57028,128.43974-47.57028-57.50443-47.57028-128.43974Z" fill="#fff" stroke-width="0"/><ellipse rx="47.570275" ry="128.439742" transform="translate(1271.20504 671.350974)" fill="#fff" stroke-width="0"/><rect width="195.773618" height="98.46934" rx="0" ry="0" transform="translate(1075.431422 614.101819)" fill="#fff" stroke-width="0"/><path d="M1169.70097,713.42633c-59.20798-.4723-106.22419-123.87802-105.01364-275.6344s50.18945-274.39636,109.39743-273.92406s106.22419,123.87802,105.01364,275.6344-50.18945,274.39636-109.39743,273.92406Zm4.3838-139.462c22.09139,0,40-17.90861,40-40s-17.90861-40-40-40-40,17.90861-40,40s17.90861,40,40,40Z" fill="#ef5f20" stroke-width="0"/></g><polygon points="0,-130.00985 0,-130.009849 76.417872,105.180178 -76.417872,105.180178 0,-130.009848 0,-130.00985" transform="matrix(-.093476-.083005 2.037386-2.294395 492.765568 571.799143)" fill="#fff" stroke-width="0"/><polygon points="0,-130.00985 0,-130.009849 76.417872,105.180178 -76.417872,105.180178 0,-130.009848 0,-130.00985" transform="matrix(-.043869-.038955 2.037386-2.294395 341.493101 583.068157)" fill="#ef5f20" stroke-width="0"/><polygon points="0,-130.00985 0,-130.009849 76.417872,105.180178 -76.417872,105.180178 0,-130.009848 0,-130.00985" transform="matrix(-.043869-.038955 2.037386-2.294395 553.743205 662.249981)" fill="#ef5f20" stroke-width="0"/><path d="M-107.377224,-232.537847c0,0,6.917298,89.75266,28.320615,115.217785s96.840007,33.695151,96.840007,33.695151-75.436689,8.230026-96.840007,33.69515-28.320615,115.217785-28.320615,115.217785-6.917299-89.75266-28.320616-115.217785-96.840007-33.69515-96.840007-33.69515s75.436689-8.230027,96.840007-33.695151s28.320616-115.217785,28.320616-115.217785Z" transform="matrix(.12 0 0 0.10073 578.205468 247.944383)" fill="#fff" stroke-width="0"/><path d="M-107.377224,-232.537847c0,0,6.917298,89.75266,28.320615,115.217785s96.840007,33.695151,96.840007,33.695151-75.436689,8.230026-96.840007,33.69515-28.320615,115.217785-28.320615,115.217785-6.917299-89.75266-28.320616-115.217785-96.840007-33.69515-96.840007-33.69515s75.436689-8.230027,96.840007-33.695151s28.320616-115.217785,28.320616-115.217785Z" transform="matrix(.12 0 0 0.10073 963.041053 593.641604)" fill="#fff" stroke-width="0"/><path d="M-107.377224,-232.537847c0,0,6.917298,89.75266,28.320615,115.217785s96.840007,33.695151,96.840007,33.695151-75.436689,8.230026-96.840007,33.69515-28.320615,115.217785-28.320615,115.217785-6.917299-89.75266-28.320616-115.217785-96.840007-33.69515-96.840007-33.69515s75.436689-8.230027,96.840007-33.695151s28.320616-115.217785,28.320616-115.217785Z" transform="matrix(.12 0 0 0.10073 420.083362 167.828885)" fill="#fff" stroke-width="0"/><path d="M-149.097431,-232.537847c0,0,4.611532,59.835107,18.88041,76.811857s64.560004,22.463434,64.560004,22.463434-50.291126,5.486684-64.560004,22.463433-18.88041,76.811857-18.88041,76.811857-4.611533-59.835107-18.880411-76.811857-64.560005-22.463433-64.560005-22.463433s50.291126-5.486685,64.560005-22.463434s18.880411-76.811857,18.880411-76.811857Z" transform="matrix(.12 0 0 0.10073 921.300877 353.897809)" fill="#fff" stroke-width="0"/><path d="M-95.742268,-232.537847c0,0,7.560331,112.997575,30.953305,145.057876s105.842273,42.421811,105.842273,42.421811-82.449298,10.361509-105.842273,42.421809-30.953305,145.057877-30.953305,145.057877-7.560332-112.997575-30.953306-145.057877-105.842273-42.421809-105.842273-42.421809s82.449298-10.36151,105.842273-42.421811s30.953306-145.057876,30.953306-145.057876Z" transform="matrix(.14 0 0 0.10073 978.559704 124.406789)" fill="#fff" stroke-width="0"/><path d="M-95.742268,-232.537847c0,0,7.560331,112.997575,30.953305,145.057876s105.842273,42.421811,105.842273,42.421811-82.449298,10.361509-105.842273,42.421809-30.953305,145.057877-30.953305,145.057877-7.560332-112.997575-30.953306-145.057877-105.842273-42.421809-105.842273-42.421809s82.449298-10.36151,105.842273-42.421811s30.953306-145.057876,30.953306-145.057876Z" transform="matrix(.12 0 0 0.10073 707.941537 698.250128)" fill="#fff" stroke-width="0"/></svg>
